<?xml version="1.0" encoding="utf-8"?>
<!-- Generator: Adobe Illustrator 25.0.0, SVG Export Plug-In . SVG Version: 6.00 Build 0)  -->
<svg version="1.1" id="Layer_1" xmlns="http://www.w3.org/2000/svg" xmlns:xlink="http://www.w3.org/1999/xlink" x="0px" y="0px"
	 viewBox="0 0 2000 2000" style="enable-background:new 0 0 2000 2000;" xml:space="preserve">
<style type="text/css">
	.st0{clip-path:url(#SVGID_2_);}
	.st1{fill:#FFFFFF;}
	.st2{fill:url(#SVGID_3_);}
	.st3{fill:url(#SVGID_4_);}
	.st4{fill:url(#SVGID_5_);}
	.st5{fill:url(#SVGID_6_);}
	.st6{fill:url(#SVGID_7_);}
	.st7{fill:url(#SVGID_8_);}
	.st8{fill:url(#SVGID_9_);}
	.st9{fill:url(#SVGID_10_);}
	.st10{fill:url(#SVGID_11_);}
	.st11{fill:url(#SVGID_12_);}
	.st12{fill:url(#SVGID_13_);}
	.st13{fill:url(#SVGID_14_);}
	.st14{fill:url(#SVGID_15_);}
	.st15{fill:url(#SVGID_16_);}
	.st16{fill:url(#SVGID_17_);}
	.st17{fill:url(#SVGID_18_);}
	.st18{fill:url(#SVGID_19_);}
	.st19{fill:url(#SVGID_20_);}
	.st20{fill:url(#SVGID_21_);}
	.st21{fill:url(#SVGID_22_);}
	.st22{fill:url(#SVGID_23_);}
	.st23{fill:url(#SVGID_24_);}
	.st24{fill:url(#SVGID_25_);}
	.st25{fill:url(#SVGID_26_);}
	.st26{fill:url(#SVGID_27_);}
	.st27{fill:url(#SVGID_28_);}
	.st28{fill:url(#SVGID_29_);}
	.st29{fill:url(#SVGID_30_);}
	.st30{fill:url(#SVGID_31_);}
	.st31{fill:url(#SVGID_32_);}
	.st32{fill:url(#SVGID_33_);}
	.st33{fill:url(#SVGID_34_);}
	.st34{fill:url(#SVGID_35_);}
	.st35{fill:url(#SVGID_36_);}
	.st36{fill:url(#SVGID_37_);}
	.st37{fill:url(#SVGID_38_);}
	.st38{fill:url(#SVGID_39_);}
	.st39{fill:url(#SVGID_40_);}
	.st40{fill:url(#SVGID_41_);}
	.st41{fill:url(#SVGID_42_);}
	.st42{fill:url(#SVGID_43_);}
	.st43{fill:url(#SVGID_44_);}
	.st44{fill:url(#SVGID_45_);}
	.st45{fill:url(#SVGID_46_);}
	.st46{fill:url(#SVGID_47_);}
	.st47{fill:url(#SVGID_48_);}
	.st48{fill:url(#SVGID_49_);}
	.st49{fill:url(#SVGID_50_);}
	.st50{fill:url(#SVGID_51_);}
</style>
<g id="Layer_1_1_">
	<g>
		<g>
			<g>
				<defs>
					<rect id="SVGID_1_" y="0" width="2000" height="2000"/>
				</defs>
				<clipPath id="SVGID_2_">
					<use xlink:href="#SVGID_1_"  style="overflow:visible;"/>
				</clipPath>
				<g class="st0">
					<g>
						<g>
							<path class="st1" d="M3772.6,282.3c-20.6-49-56.7-94.1-97.3-127.8c-35.9-30-79.2-50.1-125.4-57.6
								c-27.4-4.4-55.6-3.5-82.9,0.8c-34.4,5.4-65.7,18.9-98.5,29.6c-81.8,26.9-170.2,22.1-235.7-37.8
								c-35.5-32.4-58.2-75.7-75.5-119.8c-4.8-12.2-23.3-4.2-18.6,7.9c24.2,61.9,60.4,120.7,118.8,155.7
								c44.7,26.7,96.5,34.3,147.8,28.7c67.9-7.4,127.6-44.1,196.3-47.6c110.5-5.7,210.7,77.1,252.3,175.8
								C3759.1,302.2,3777.7,294.3,3772.6,282.3L3772.6,282.3z"/>
						</g>
						<g>
							<path class="st1" d="M3058.2-28.4c-20.6-49-56.7-94.1-97.3-127.8c-35.9-30-79.2-50.1-125.4-57.6c-27.4-4.4-55.6-3.5-82.9,0.8
								c-34.4,5.4-65.7,18.9-98.5,29.6c-81.8,26.9-170.2,22.1-235.7-37.8c-35.5-32.4-58.2-75.7-75.5-119.8
								c-4.8-12.2-23.3-4.2-18.6,7.9c24.2,61.9,60.4,120.7,118.8,155.7c44.7,26.7,96.5,34.3,147.8,28.7
								c67.9-7.4,127.6-44.1,196.3-47.6c110.5-5.7,210.7,77.1,252.3,175.8C3044.6-8.5,3063.2-16.4,3058.2-28.4L3058.2-28.4z"/>
						</g>
						<g>
							<g>
								<path class="st1" d="M2345-336.2c-20.6-49-56.7-94.1-97.3-127.8c-35.9-30-79.2-50.1-125.4-57.6c-27.4-4.4-55.6-3.5-82.9,0.8
									c-34.4,5.4-65.7,18.9-98.5,29.6c-81.8,26.9-170.2,22.1-235.7-37.8c-35.5-32.4-58.2-75.7-75.5-119.8
									c-4.8-12.2-23.3-4.2-18.6,7.9c24.2,61.9,60.4,120.7,118.8,155.7c44.7,26.7,96.5,34.3,147.8,28.7
									c67.9-7.4,127.6-44.1,196.3-47.6c110.5-5.7,210.7,77.1,252.3,175.8C2331.4-316.3,2350-324.2,2345-336.2L2345-336.2z"/>
							</g>
							<g>
								<path class="st1" d="M1630.5-646.8c-20.6-49-56.7-94.1-97.3-127.8c-35.9-30-79.2-50.1-125.4-57.6
									c-27.4-4.4-55.6-3.5-82.9,0.8c-34.4,5.4-65.7,18.9-98.5,29.6c-81.8,26.9-170.2,22.1-235.7-37.8
									c-35.5-32.4-58.2-75.7-75.5-119.8c-4.8-12.2-23.3-4.2-18.6,7.9c24.2,61.9,60.4,120.7,118.8,155.7
									c44.7,26.7,96.5,34.3,147.8,28.7c67.9-7.4,127.6-44.1,196.3-47.6c110.5-5.7,210.7,77.1,252.3,175.8
									C1617-627,1635.5-634.9,1630.5-646.8L1630.5-646.8z"/>
							</g>
						</g>
					</g>
					<g>
						<g>
							<path class="st1" d="M3656.6,398.3c-20.6-49-56.7-94.1-97.3-127.8c-35.9-30-79.2-50.1-125.4-57.6
								c-27.4-4.4-55.6-3.5-82.9,0.8c-34.4,5.4-65.7,18.9-98.5,29.6c-81.8,26.9-170.2,22.1-235.7-37.8
								c-35.5-32.4-58.2-75.7-75.5-119.8c-4.8-12.2-23.3-4.2-18.6,7.9c24.2,61.9,60.4,120.7,118.8,155.7
								c44.7,26.7,96.5,34.3,147.8,28.7c67.9-7.4,127.6-44.1,196.3-47.6c110.5-5.7,210.7,77.1,252.3,175.8
								C3643,418.2,3661.6,410.3,3656.6,398.3L3656.6,398.3z"/>
						</g>
						<g>
							<path class="st1" d="M2942.1,87.7c-20.6-49-56.7-94.1-97.3-127.8c-35.9-30-79.2-50.1-125.4-57.6c-27.4-4.4-55.6-3.5-82.9,0.8
								c-34.4,5.4-65.7,18.9-98.5,29.6c-81.8,26.9-170.2,22.1-235.7-37.8c-35.5-32.4-58.2-75.7-75.5-119.8
								c-4.8-12.2-23.3-4.2-18.6,7.9c24.2,61.9,60.4,120.7,118.8,155.7c44.7,26.7,96.5,34.3,147.8,28.7
								c67.9-7.4,127.6-44.1,196.3-47.6c110.5-5.7,210.7,77.1,252.3,175.8C2928.6,107.6,2947.2,99.7,2942.1,87.7L2942.1,87.7z"/>
						</g>
						<g>
							<g>
								<path class="st1" d="M2228.9-220.1c-20.6-49-56.7-94.1-97.3-127.8c-35.9-30-79.2-50.1-125.4-57.6
									c-27.4-4.4-55.6-3.5-82.9,0.8c-34.4,5.4-65.7,18.9-98.5,29.6c-81.8,26.9-170.2,22.1-235.7-37.8
									c-35.5-32.4-58.2-75.7-75.5-119.8c-4.8-12.2-23.3-4.2-18.6,7.9c24.2,61.9,60.4,120.7,118.8,155.7
									c44.7,26.7,96.5,34.3,147.8,28.7c67.9-7.4,127.6-44.1,196.3-47.6c110.5-5.7,210.7,77.1,252.3,175.8
									C2215.4-200.2,2233.9-208.1,2228.9-220.1L2228.9-220.1z"/>
							</g>
							<g>
								<path class="st1" d="M1514.4-530.8c-20.6-49-56.7-94.1-97.3-127.8c-35.9-30-79.2-50.1-125.4-57.6
									c-27.4-4.4-55.6-3.5-82.9,0.8c-34.4,5.4-65.7,18.9-98.5,29.6c-81.8,26.9-170.2,22.1-235.7-37.8
									c-35.5-32.4-58.2-75.7-75.5-119.8c-4.8-12.2-23.3-4.2-18.6,7.9c24.2,61.9,60.4,120.7,118.8,155.7
									c44.7,26.7,96.5,34.3,147.8,28.7c67.9-7.4,127.6-44.1,196.3-47.6c110.5-5.7,210.7,77.1,252.3,175.8
									C1500.9-510.9,1519.5-518.8,1514.4-530.8L1514.4-530.8z"/>
							</g>
						</g>
					</g>
					<g>
						<g>
							<path class="st1" d="M3540.5,514.4c-20.6-49-56.7-94.1-97.3-127.8c-35.9-30-79.2-50.1-125.4-57.6
								c-27.4-4.4-55.6-3.5-82.9,0.8c-34.4,5.4-65.7,18.9-98.5,29.6c-81.8,26.9-170.2,22.1-235.7-37.8
								c-35.5-32.4-58.2-75.7-75.5-119.8c-4.8-12.2-23.3-4.2-18.6,7.9c24.2,61.9,60.4,120.7,118.8,155.7
								c44.7,26.7,96.5,34.3,147.8,28.7c67.9-7.4,127.6-44.1,196.3-47.6c110.5-5.7,210.7,77.1,252.3,175.8
								C3527,534.3,3545.6,526.4,3540.5,514.4L3540.5,514.4z"/>
						</g>
						<g>
							<path class="st1" d="M2826.1,203.7c-20.6-49-56.7-94.1-97.3-127.8c-35.9-30-79.2-50.1-125.4-57.6
								c-27.4-4.4-55.6-3.5-82.9,0.8c-34.4,5.4-65.7,18.9-98.5,29.6c-81.8,26.9-170.2,22.1-235.7-37.8
								c-35.5-32.4-58.2-75.7-75.5-119.8c-4.8-12.2-23.3-4.2-18.6,7.9c24.2,61.9,60.4,120.7,118.8,155.7
								c44.7,26.7,96.5,34.3,147.8,28.7c67.9-7.4,127.6-44.1,196.3-47.6c110.5-5.7,210.7,77.1,252.3,175.8
								C2812.5,223.6,2831.1,215.7,2826.1,203.7L2826.1,203.7z"/>
						</g>
						<g>
							<g>
								<path class="st1" d="M2112.8-104.1c-20.6-49-56.7-94.1-97.3-127.8c-35.9-30-79.2-50.1-125.4-57.6
									c-27.4-4.4-55.6-3.5-82.9,0.8c-34.4,5.4-65.7,18.9-98.5,29.6c-81.8,26.9-170.2,22.1-235.7-37.8
									c-35.5-32.4-58.2-75.7-75.5-119.8c-4.8-12.2-23.3-4.2-18.6,7.9c24.2,61.9,60.4,120.7,118.8,155.7
									c44.7,26.7,96.5,34.3,147.8,28.7c67.9-7.4,127.6-44.1,196.3-47.6c110.5-5.7,210.7,77.1,252.3,175.8
									C2099.3-84.2,2117.9-92.1,2112.8-104.1L2112.8-104.1z"/>
							</g>
							<g>
								<path class="st1" d="M1398.4-414.7c-20.6-49-56.7-94.1-97.3-127.8c-35.9-30-79.2-50.1-125.4-57.6
									c-27.4-4.4-55.6-3.5-82.9,0.8c-34.4,5.4-65.7,18.9-98.5,29.6c-81.8,26.9-170.2,22.1-235.7-37.8
									c-35.5-32.4-58.2-75.7-75.5-119.8c-4.8-12.2-23.3-4.2-18.6,7.9c24.2,61.9,60.4,120.7,118.8,155.7
									C828-537,879.8-529.4,931.1-535c67.9-7.4,127.6-44.1,196.3-47.6c110.5-5.7,210.7,77.1,252.3,175.8
									C1384.8-394.8,1403.4-402.7,1398.4-414.7L1398.4-414.7z"/>
							</g>
						</g>
					</g>
					<g>
						<g>
							<path class="st1" d="M3424.4,630.5c-20.6-49-56.7-94.1-97.3-127.8c-35.9-30-79.2-50.1-125.4-57.6
								c-27.4-4.4-55.6-3.5-82.9,0.8c-34.4,5.4-65.7,18.9-98.5,29.6c-81.8,26.9-170.2,22.1-235.7-37.8
								c-35.5-32.4-58.2-75.7-75.5-119.8c-4.8-12.2-23.3-4.2-18.6,7.9c24.2,61.9,60.4,120.7,118.8,155.7
								c44.7,26.7,96.5,34.3,147.8,28.7c67.9-7.4,127.6-44.1,196.3-47.6c110.5-5.7,210.7,77.1,252.3,175.8
								C3410.9,650.3,3429.5,642.5,3424.4,630.5L3424.4,630.5z"/>
						</g>
						<g>
							<path class="st1" d="M2710,319.8c-20.6-49-56.7-94.1-97.3-127.8c-35.9-30-79.2-50.1-125.4-57.6c-27.4-4.4-55.6-3.5-82.9,0.8
								c-34.4,5.4-65.7,18.9-98.5,29.6c-81.8,26.9-170.2,22.1-235.7-37.8c-35.5-32.4-58.2-75.7-75.5-119.8
								c-4.8-12.2-23.3-4.2-18.6,7.9c24.2,61.9,60.4,120.7,118.8,155.7c44.7,26.7,96.5,34.3,147.8,28.7
								c67.9-7.4,127.6-44.1,196.3-47.6c110.5-5.7,210.7,77.1,252.3,175.8C2696.5,339.7,2715,331.8,2710,319.8L2710,319.8z"/>
						</g>
						<g>
							<g>
								<path class="st1" d="M1996.8,12c-20.6-49-56.7-94.1-97.3-127.8c-35.9-30-79.2-50.1-125.4-57.6c-27.4-4.4-55.6-3.5-82.9,0.8
									c-34.4,5.4-65.7,18.9-98.5,29.6c-81.8,26.9-170.2,22.1-235.7-37.8c-35.5-32.4-58.2-75.7-75.5-119.8
									c-4.8-12.2-23.3-4.2-18.6,7.9c24.2,61.9,60.4,120.7,118.8,155.7c44.7,26.7,96.5,34.3,147.8,28.7
									c67.9-7.4,127.6-44.1,196.3-47.6c110.5-5.7,210.7,77.1,252.3,175.8C1983.2,31.9,2001.8,24,1996.8,12L1996.8,12z"/>
							</g>
							<g>
								<path class="st1" d="M1282.3-298.7c-20.6-49-56.7-94.1-97.3-127.8c-35.9-30-79.2-50.1-125.4-57.6
									c-27.4-4.4-55.6-3.5-82.9,0.8c-34.4,5.4-65.7,18.9-98.5,29.6c-81.8,26.9-170.2,22.1-235.7-37.8
									c-35.5-32.4-58.2-75.7-75.5-119.8c-4.8-12.2-23.3-4.2-18.6,7.9c24.2,61.9,60.4,120.7,118.8,155.7
									C712-421,763.9-413.4,815.1-419c67.9-7.4,127.6-44.1,196.3-47.6c110.5-5.7,210.7,77.1,252.3,175.8
									C1268.8-278.8,1287.4-286.7,1282.3-298.7L1282.3-298.7z"/>
							</g>
						</g>
					</g>
					<g>
						<g>
							<path class="st1" d="M3308.4,746.5c-20.6-49-56.7-94.1-97.3-127.8c-35.9-30-79.2-50.1-125.4-57.6
								c-27.4-4.4-55.6-3.5-82.9,0.8c-34.4,5.4-65.7,18.9-98.5,29.6c-81.8,26.9-170.2,22.1-235.7-37.8
								c-35.5-32.4-58.2-75.7-75.5-119.8c-4.8-12.2-23.3-4.2-18.6,7.9c24.2,61.9,60.4,120.7,118.8,155.7
								c44.7,26.7,96.5,34.3,147.8,28.7c67.9-7.4,127.6-44.1,196.3-47.6c110.5-5.7,210.7,77.1,252.3,175.8
								C3294.8,766.4,3313.4,758.5,3308.4,746.5L3308.4,746.5z"/>
						</g>
						<g>
							
								<linearGradient id="SVGID_3_" gradientUnits="userSpaceOnUse" x1="1859.2421" y1="1714.4183" x2="2594.7764" y2="1714.4183" gradientTransform="matrix(1 0 0 -1 0 1997.8898)">
								<stop  offset="0" style="stop-color:#3023AE"/>
								<stop  offset="1" style="stop-color:#FF0099"/>
							</linearGradient>
							<path class="st2" d="M2593.9,435.9c-20.6-49-56.7-94.1-97.3-127.8c-35.9-30-79.2-50.1-125.4-57.6
								c-27.4-4.4-55.6-3.5-82.9,0.8c-34.4,5.4-65.7,18.9-98.5,29.6c-81.8,26.9-170.2,22.1-235.7-37.8
								c-35.5-32.4-58.2-75.7-75.5-119.8c-4.8-12.2-23.3-4.2-18.6,7.9c24.2,61.9,60.4,120.7,118.8,155.7
								c44.7,26.7,96.5,34.3,147.8,28.7c67.9-7.4,127.6-44.1,196.3-47.6c110.5-5.7,210.7,77.1,252.3,175.8
								C2580.4,455.7,2599,447.9,2593.9,435.9L2593.9,435.9z"/>
						</g>
						<g>
							<g>
								
									<linearGradient id="SVGID_4_" gradientUnits="userSpaceOnUse" x1="1146.042" y1="2022.2183" x2="1881.5764" y2="2022.2183" gradientTransform="matrix(1 0 0 -1 0 1997.8898)">
									<stop  offset="0" style="stop-color:#3023AE"/>
									<stop  offset="1" style="stop-color:#FF0099"/>
								</linearGradient>
								<path class="st3" d="M1880.7,128.1c-20.6-49-56.7-94.1-97.3-127.8c-35.9-30-79.2-50.1-125.4-57.6
									c-27.4-4.4-55.6-3.5-82.9,0.8c-34.4,5.4-65.7,18.9-98.5,29.6C1394.9,0,1306.5-4.8,1240.9-64.7
									c-35.5-32.4-58.2-75.7-75.5-119.8c-4.8-12.2-23.3-4.2-18.6,7.9c24.2,61.9,60.4,120.7,118.8,155.7
									c44.7,26.7,96.5,34.3,147.8,28.7c67.9-7.4,127.6-44.1,196.3-47.6c110.5-5.7,210.7,77.1,252.3,175.8
									C1867.2,147.9,1885.8,140.1,1880.7,128.1L1880.7,128.1z"/>
							</g>
							<g>
								<path class="st1" d="M1166.3-182.6c-20.6-49-56.7-94.1-97.3-127.8c-35.9-30-79.2-50.1-125.4-57.6
									c-27.4-4.4-55.6-3.5-82.9,0.8c-34.4,5.4-65.7,18.9-98.5,29.6c-81.8,26.9-170.2,22.1-235.7-37.8
									C491-407.8,468.3-451,451-495.2c-4.8-12.2-23.3-4.2-18.6,7.9c24.2,61.9,60.4,120.7,118.8,155.7
									c44.7,26.7,96.5,34.3,147.8,28.7c67.9-7.4,127.6-44.1,196.3-47.6c110.5-5.7,210.7,77.1,252.3,175.8
									C1152.7-162.7,1171.3-170.6,1166.3-182.6L1166.3-182.6z"/>
							</g>
						</g>
					</g>
					<g>
						<g>
							<path class="st1" d="M3192.3,862.6c-20.6-49-56.7-94.1-97.3-127.8c-35.9-30-79.2-50.1-125.4-57.6
								c-27.4-4.4-55.6-3.5-82.9,0.8c-34.4,5.4-65.7,18.9-98.5,29.6c-81.8,26.9-170.2,22.1-235.7-37.8
								c-35.5-32.4-58.2-75.7-75.5-119.8c-4.8-12.2-23.3-4.2-18.6,7.9c24.2,61.9,60.4,120.7,118.8,155.7
								c44.7,26.7,96.5,34.3,147.8,28.7c67.9-7.4,127.6-44.1,196.3-47.6c110.5-5.7,210.7,77.1,252.3,175.8
								C3178.8,882.5,3197.4,874.6,3192.3,862.6L3192.3,862.6z"/>
						</g>
						<g>
							
								<linearGradient id="SVGID_5_" gradientUnits="userSpaceOnUse" x1="1743.2421" y1="1598.3961" x2="2478.7451" y2="1598.3961" gradientTransform="matrix(1 0 0 -1 0 1997.8898)">
								<stop  offset="0" style="stop-color:#3023AE"/>
								<stop  offset="1" style="stop-color:#FF0099"/>
							</linearGradient>
							<path class="st4" d="M2477.9,551.9c-20.6-49-56.7-94.1-97.3-127.8c-35.9-30-79.2-50.1-125.4-57.6
								c-27.4-4.4-55.6-3.5-82.9,0.8c-34.4,5.4-65.7,18.9-98.5,29.6c-81.8,26.9-170.2,22.1-235.7-37.8
								c-35.5-32.4-58.2-75.7-75.5-119.8c-4.8-12.2-23.3-4.2-18.6,7.9c24.2,61.9,60.4,120.7,118.8,155.7
								c44.7,26.7,96.5,34.3,147.8,28.7c67.9-7.4,127.6-44.1,196.3-47.6c110.5-5.7,210.7,77.1,252.3,175.8
								C2464.3,571.8,2482.9,563.9,2477.9,551.9L2477.9,551.9z"/>
						</g>
						<g>
							<g>
								
									<linearGradient id="SVGID_6_" gradientUnits="userSpaceOnUse" x1="1029.9419" y1="1906.196" x2="1765.4763" y2="1906.196" gradientTransform="matrix(1 0 0 -1 0 1997.8898)">
									<stop  offset="0" style="stop-color:#3023AE"/>
									<stop  offset="1" style="stop-color:#FF0099"/>
								</linearGradient>
								<path class="st5" d="M1764.6,244.1c-20.6-49-56.7-94.1-97.3-127.8c-35.9-30-79.2-50.1-125.4-57.6
									c-27.4-4.4-55.6-3.5-82.9,0.8c-34.4,5.4-65.7,18.9-98.5,29.6c-81.8,26.9-170.2,22.1-235.7-37.8
									c-35.5-32.4-58.2-75.7-75.5-119.8c-4.8-12.2-23.3-4.2-18.6,7.9c24.2,61.9,60.4,120.7,118.8,155.7
									c44.7,26.7,96.5,34.3,147.8,28.7c67.9-7.4,127.6-44.1,196.3-47.6c110.5-5.7,210.7,77.1,252.3,175.8
									C1751.1,264,1769.7,256.1,1764.6,244.1L1764.6,244.1z"/>
							</g>
							<g>
								<path class="st1" d="M1050.2-66.5c-20.6-49-56.7-94.1-97.3-127.8c-35.9-30-79.2-50.1-125.4-57.6
									c-27.4-4.4-55.6-3.5-82.9,0.8c-34.4,5.4-65.7,18.9-98.5,29.6c-81.8,26.9-170.2,22.1-235.7-37.8
									c-35.5-32.4-58.2-75.7-75.5-119.8c-4.8-12.2-23.3-4.2-18.6,7.9c24.2,61.9,60.4,120.7,118.8,155.7
									c44.7,26.7,96.5,34.3,147.8,28.7c67.9-7.4,127.6-44.1,196.3-47.6c110.5-5.7,210.7,77.1,252.3,175.8
									C1036.7-46.7,1055.2-54.5,1050.2-66.5L1050.2-66.5z"/>
							</g>
						</g>
					</g>
					<g>
						<g>
							<path class="st1" d="M3076.3,978.6c-20.6-49-56.7-94.1-97.3-127.8c-35.9-30-79.2-50.1-125.4-57.6
								c-27.4-4.4-55.5-3.5-82.9,0.8c-34.4,5.4-65.7,18.9-98.5,29.6c-81.8,26.9-170.2,22.1-235.7-37.8
								c-35.5-32.4-58.2-75.7-75.5-119.8c-4.8-12.2-23.3-4.2-18.6,7.9c24.2,61.9,60.4,120.7,118.8,155.7
								c44.7,26.7,96.5,34.3,147.8,28.7c67.9-7.4,127.6-44.1,196.3-47.6c110.5-5.7,210.7,77.1,252.3,175.8
								C3062.7,998.5,3081.3,990.6,3076.3,978.6L3076.3,978.6z"/>
						</g>
						<g>
							
								<linearGradient id="SVGID_7_" gradientUnits="userSpaceOnUse" x1="1627.1422" y1="1482.296" x2="2362.6763" y2="1482.296" gradientTransform="matrix(1 0 0 -1 0 1997.8898)">
								<stop  offset="0" style="stop-color:#3023AE"/>
								<stop  offset="1" style="stop-color:#FF0099"/>
							</linearGradient>
							<path class="st6" d="M2361.8,668c-20.6-49-56.7-94.1-97.3-127.8c-35.9-30-79.2-50.1-125.4-57.6c-27.4-4.4-55.6-3.5-82.9,0.8
								c-34.4,5.4-65.7,18.9-98.5,29.6c-81.8,26.9-170.2,22.1-235.7-37.8c-35.5-32.4-58.2-75.7-75.5-119.8
								c-4.8-12.2-23.3-4.2-18.6,7.9c24.2,61.9,60.4,120.7,118.8,155.7c44.7,26.7,96.5,34.3,147.8,28.7
								c67.9-7.4,127.6-44.1,196.3-47.6c110.5-5.7,210.7,77.1,252.3,175.8C2348.3,687.9,2366.9,680,2361.8,668L2361.8,668z"/>
						</g>
						<g>
							<g>
								
									<linearGradient id="SVGID_8_" gradientUnits="userSpaceOnUse" x1="913.9418" y1="1790.0961" x2="1649.4452" y2="1790.0961" gradientTransform="matrix(1 0 0 -1 0 1997.8898)">
									<stop  offset="0" style="stop-color:#3023AE"/>
									<stop  offset="1" style="stop-color:#FF0099"/>
								</linearGradient>
								<path class="st7" d="M1648.6,360.2c-20.6-49-56.7-94.1-97.3-127.8c-35.9-30-79.2-50.1-125.4-57.6
									c-27.4-4.4-55.6-3.5-82.9,0.8c-34.4,5.4-65.7,18.9-98.5,29.6c-81.8,26.9-170.2,22.1-235.7-37.8
									c-35.5-32.4-58.2-75.7-75.5-119.8c-4.8-12.2-23.3-4.2-18.6,7.9c24.2,61.9,60.4,120.7,118.8,155.7
									c44.7,26.7,96.5,34.3,147.8,28.7c67.9-7.4,127.6-44.1,196.3-47.6c110.5-5.7,210.7,77.1,252.3,175.8
									C1635,380.1,1653.6,372.2,1648.6,360.2L1648.6,360.2z"/>
							</g>
							<g>
								
									<linearGradient id="SVGID_9_" gradientUnits="userSpaceOnUse" x1="199.4419" y1="2100.7961" x2="934.9764" y2="2100.7961" gradientTransform="matrix(1 0 0 -1 0 1997.8898)">
									<stop  offset="0" style="stop-color:#3023AE"/>
									<stop  offset="1" style="stop-color:#FF0099"/>
								</linearGradient>
								<path class="st8" d="M934.1,49.5c-20.6-49-56.7-94.1-97.3-127.8c-35.9-30-79.2-50.1-125.4-57.6c-27.4-4.4-55.6-3.5-82.9,0.8
									c-34.4,5.4-65.7,18.9-98.5,29.6c-81.8,26.9-170.2,22.1-235.7-37.8c-35.5-32.4-58.2-75.7-75.5-119.8
									c-4.8-12.2-23.3-4.2-18.6,7.9c24.2,61.9,60.4,120.7,118.8,155.7c44.7,26.7,96.5,34.3,147.8,28.7
									c67.9-7.4,127.6-44.1,196.3-47.6c110.5-5.7,210.7,77.1,252.3,175.8C920.6,69.4,939.2,61.5,934.1,49.5L934.1,49.5z"/>
							</g>
						</g>
					</g>
					<g>
						<g>
							<path class="st1" d="M2960.2,1094.7c-20.6-49-56.7-94.1-97.3-127.8c-35.9-30-79.2-50.1-125.4-57.6
								c-27.4-4.4-55.5-3.5-82.9,0.8c-34.4,5.4-65.7,18.9-98.5,29.6c-81.8,26.9-170.2,22.1-235.7-37.8
								c-35.5-32.4-58.2-75.7-75.5-119.8c-4.8-12.2-23.3-4.2-18.6,7.9c24.2,61.9,60.4,120.7,118.8,155.7
								c44.7,26.7,96.5,34.3,147.8,28.7c67.9-7.4,127.6-44.1,196.3-47.6c110.5-5.7,210.7,77.1,252.3,175.8
								C2946.7,1114.6,2965.3,1106.7,2960.2,1094.7L2960.2,1094.7z"/>
						</g>
						<g>
							
								<linearGradient id="SVGID_10_" gradientUnits="userSpaceOnUse" x1="1511.142" y1="1366.296" x2="2246.6453" y2="1366.296" gradientTransform="matrix(1 0 0 -1 0 1997.8898)">
								<stop  offset="0" style="stop-color:#3023AE"/>
								<stop  offset="1" style="stop-color:#FF0099"/>
							</linearGradient>
							<path class="st9" d="M2245.8,784c-20.6-49-56.7-94.1-97.3-127.8c-35.9-30-79.2-50.1-125.4-57.6c-27.4-4.4-55.6-3.5-82.9,0.8
								c-34.4,5.4-65.7,18.9-98.5,29.6c-81.8,26.9-170.2,22.1-235.7-37.8c-35.5-32.4-58.2-75.7-75.5-119.8
								c-4.8-12.2-23.3-4.2-18.6,7.9c24.2,61.9,60.4,120.7,118.8,155.7c44.7,26.7,96.5,34.3,147.8,28.7
								c67.9-7.4,127.6-44.1,196.3-47.6c110.5-5.7,210.7,77.1,252.3,175.8C2232.2,803.9,2250.8,796,2245.8,784L2245.8,784z"/>
						</g>
						<g>
							<g>
								
									<linearGradient id="SVGID_11_" gradientUnits="userSpaceOnUse" x1="797.8419" y1="1674.0961" x2="1533.3763" y2="1674.0961" gradientTransform="matrix(1 0 0 -1 0 1997.8898)">
									<stop  offset="0" style="stop-color:#3023AE"/>
									<stop  offset="1" style="stop-color:#FF0099"/>
								</linearGradient>
								<path class="st10" d="M1532.5,476.2c-20.6-49-56.7-94.1-97.3-127.8c-35.9-30-79.2-50.1-125.4-57.6
									c-27.4-4.4-55.6-3.5-82.9,0.8c-34.4,5.4-65.7,18.9-98.5,29.6c-81.8,26.9-170.2,22.1-235.7-37.8
									c-35.5-32.4-58.2-75.7-75.5-119.8c-4.8-12.2-23.3-4.2-18.6,7.9c24.2,61.9,60.4,120.7,118.8,155.7
									c44.7,26.7,96.5,34.3,147.8,28.7c67.9-7.4,127.6-44.1,196.3-47.6c110.5-5.7,210.7,77.1,252.3,175.8
									C1519,496.1,1537.6,488.2,1532.5,476.2L1532.5,476.2z"/>
							</g>
							<g>
								
									<linearGradient id="SVGID_12_" gradientUnits="userSpaceOnUse" x1="83.4419" y1="1984.7097" x2="818.9454" y2="1984.7097" gradientTransform="matrix(1 0 0 -1 0 1997.8898)">
									<stop  offset="0" style="stop-color:#3023AE"/>
									<stop  offset="1" style="stop-color:#FF0099"/>
								</linearGradient>
								<path class="st11" d="M818.1,165.6c-20.6-49-56.7-94.1-97.3-127.8c-35.9-30-79.2-50.1-125.4-57.6
									c-27.4-4.4-55.6-3.5-82.9,0.8c-34.4,5.4-65.7,18.9-98.5,29.6c-81.8,26.9-170.2,22.1-235.7-37.8
									c-35.5-32.4-58.2-75.7-75.5-119.8c-4.8-12.2-23.3-4.2-18.6,7.9C108.4-77.2,144.6-18.4,203,16.6
									c44.7,26.7,96.5,34.3,147.8,28.7c67.9-7.4,127.6-44.1,196.3-47.6c110.6-5.7,210.8,77,252.4,175.7
									C804.5,185.5,823.1,177.6,818.1,165.6L818.1,165.6z"/>
							</g>
						</g>
					</g>
					<g>
						<g>
							<path class="st1" d="M2844.1,1210.8c-20.6-49-56.7-94.1-97.3-127.8c-35.9-30-79.2-50.1-125.4-57.6
								c-27.4-4.4-55.6-3.5-82.9,0.8c-34.4,5.4-65.7,18.9-98.5,29.6c-81.8,26.9-170.2,22.1-235.7-37.8
								c-35.5-32.4-58.2-75.7-75.5-119.8c-4.8-12.2-23.3-4.2-18.6,7.9c24.2,61.9,60.4,120.7,118.8,155.7
								c44.7,26.7,96.5,34.3,147.8,28.7c67.9-7.4,127.6-44.1,196.3-47.6c110.5-5.7,210.7,77.1,252.3,175.8
								C2830.6,1230.7,2849.2,1222.8,2844.1,1210.8L2844.1,1210.8z"/>
						</g>
						<g>
							
								<linearGradient id="SVGID_13_" gradientUnits="userSpaceOnUse" x1="1395.0419" y1="1250.196" x2="2130.5488" y2="1250.196" gradientTransform="matrix(1 0 0 -1 0 1997.8898)">
								<stop  offset="0" style="stop-color:#3023AE"/>
								<stop  offset="1" style="stop-color:#FF0099"/>
							</linearGradient>
							<path class="st12" d="M2129.7,900.1c-20.6-49-56.7-94.1-97.3-127.8c-35.9-30-79.2-50.1-125.4-57.6
								c-27.4-4.4-55.6-3.5-82.9,0.8c-34.4,5.4-65.7,18.9-98.5,29.6c-81.8,26.9-170.2,22.1-235.7-37.8
								c-35.5-32.4-58.2-75.7-75.5-119.8c-4.8-12.2-23.3-4.2-18.6,7.9c24.2,61.9,60.4,120.7,118.8,155.7
								c44.7,26.7,96.5,34.3,147.8,28.7c67.9-7.4,127.6-44.1,196.3-47.6c110.5-5.7,210.7,77.1,252.3,175.8
								C2116.2,920,2134.7,912.1,2129.7,900.1L2129.7,900.1z"/>
						</g>
						<g>
							<g>
								
									<linearGradient id="SVGID_14_" gradientUnits="userSpaceOnUse" x1="681.8419" y1="1557.9961" x2="1417.3452" y2="1557.9961" gradientTransform="matrix(1 0 0 -1 0 1997.8898)">
									<stop  offset="0" style="stop-color:#3023AE"/>
									<stop  offset="1" style="stop-color:#FF0099"/>
								</linearGradient>
								<path class="st13" d="M1416.5,592.3c-20.6-49-56.7-94.1-97.3-127.8c-35.9-30-79.2-50.1-125.4-57.6
									c-27.4-4.4-55.6-3.5-82.9,0.8c-34.4,5.4-65.7,18.9-98.5,29.6c-81.8,26.9-170.2,22.1-235.7-37.8
									c-35.5-32.4-58.2-75.7-75.5-119.8c-4.8-12.2-23.3-4.2-18.6,7.9c24.2,61.9,60.4,120.7,118.8,155.7
									C846.1,470,898,477.5,949.2,472c67.9-7.4,127.6-44.1,196.3-47.6c110.5-5.7,210.7,77.1,252.3,175.8
									C1402.9,612.2,1421.5,604.3,1416.5,592.3L1416.5,592.3z"/>
							</g>
							<g>
								
									<linearGradient id="SVGID_15_" gradientUnits="userSpaceOnUse" x1="-32.558" y1="1868.696" x2="702.8765" y2="1868.696" gradientTransform="matrix(1 0 0 -1 0 1997.8898)">
									<stop  offset="0" style="stop-color:#3023AE"/>
									<stop  offset="1" style="stop-color:#FF0099"/>
								</linearGradient>
								<path class="st14" d="M702,281.6c-20.6-49-56.7-94.1-97.3-127.8c-35.9-30-79.2-50.1-125.4-57.6c-27.4-4.4-55.6-3.5-82.9,0.8
									c-34.4,5.4-65.7,18.9-98.5,29.6c-81.8,26.9-170.2,22.1-235.7-37.8C26.8,56.5,4.1,13.2-13.2-31c-4.8-12.2-23.3-4.2-18.6,7.9
									C-7.6,38.8,28.6,97.6,87,132.6c44.7,26.7,96.5,34.3,147.8,28.7c67.9-7.4,127.6-44.1,196.3-47.6
									c110.5-5.7,210.7,77.1,252.3,175.8C688.5,301.5,707.1,293.6,702,281.6L702,281.6z"/>
							</g>
						</g>
					</g>
					<g>
						<g>
							<path class="st1" d="M2728.1,1326.8c-20.6-49-56.7-94.1-97.3-127.8c-35.9-30-79.2-50.1-125.4-57.6
								c-27.4-4.4-55.6-3.5-82.9,0.8c-34.4,5.4-65.7,18.9-98.5,29.6c-81.8,26.9-170.2,22.1-235.7-37.8
								c-35.5-32.4-58.2-75.7-75.5-119.8c-4.8-12.2-23.3-4.2-18.6,7.9c24.2,61.9,60.4,120.7,118.8,155.7
								c44.7,26.7,96.5,34.3,147.8,28.7c67.9-7.4,127.6-44.1,196.3-47.6c110.5-5.7,210.7,77.1,252.3,175.8
								C2714.5,1346.7,2733.1,1338.8,2728.1,1326.8L2728.1,1326.8z"/>
						</g>
						<g>
							
								<linearGradient id="SVGID_16_" gradientUnits="userSpaceOnUse" x1="1278.9419" y1="1134.1183" x2="2014.4763" y2="1134.1183" gradientTransform="matrix(1 0 0 -1 0 1997.8898)">
								<stop  offset="0" style="stop-color:#3023AE"/>
								<stop  offset="1" style="stop-color:#FF0099"/>
							</linearGradient>
							<path class="st15" d="M2013.6,1016.2c-20.6-49-56.7-94.1-97.3-127.8c-35.9-30-79.2-50.1-125.4-57.6
								c-27.4-4.4-55.6-3.5-82.9,0.8c-34.4,5.4-65.7,18.9-98.5,29.6c-81.8,26.9-170.2,22.1-235.7-37.8
								c-35.5-32.4-58.2-75.7-75.5-119.8c-4.8-12.2-23.3-4.2-18.6,7.9c24.2,61.9,60.4,120.7,118.8,155.7
								c44.7,26.7,96.5,34.3,147.8,28.7c67.9-7.4,127.6-44.1,196.3-47.6c110.5-5.7,210.7,77.1,252.3,175.8
								C2000.1,1036,2018.7,1028.2,2013.6,1016.2L2013.6,1016.2z"/>
						</g>
						<g>
							<g>
								
									<linearGradient id="SVGID_17_" gradientUnits="userSpaceOnUse" x1="565.7419" y1="1441.8961" x2="1301.2764" y2="1441.8961" gradientTransform="matrix(1 0 0 -1 0 1997.8898)">
									<stop  offset="0" style="stop-color:#3023AE"/>
									<stop  offset="1" style="stop-color:#FF0099"/>
								</linearGradient>
								<path class="st16" d="M1300.4,708.4c-20.6-49-56.7-94.1-97.3-127.8c-35.9-30-79.2-50.1-125.4-57.6
									c-27.4-4.4-55.6-3.5-82.9,0.8c-34.4,5.4-65.7,18.9-98.5,29.6c-81.8,26.9-170.2,22.1-235.7-37.8
									c-35.5-32.4-58.2-75.7-75.5-119.8c-4.8-12.2-23.3-4.2-18.6,7.9c24.2,61.9,60.4,120.7,118.8,155.7
									c44.7,26.7,96.5,34.3,147.8,28.7c67.9-7.4,127.6-44.1,196.3-47.6c110.5-5.7,210.7,77.1,252.3,175.8
									C1286.9,728.3,1305.5,720.4,1300.4,708.4L1300.4,708.4z"/>
							</g>
							<g>
								
									<linearGradient id="SVGID_18_" gradientUnits="userSpaceOnUse" x1="-148.758" y1="1752.5961" x2="586.7764" y2="1752.5961" gradientTransform="matrix(1 0 0 -1 0 1997.8898)">
									<stop  offset="0" style="stop-color:#3023AE"/>
									<stop  offset="1" style="stop-color:#FF0099"/>
								</linearGradient>
								<path class="st17" d="M585.9,397.7c-20.6-49-56.7-94.1-97.3-127.8c-35.9-30-79.2-50.1-125.4-57.6
									c-27.4-4.4-55.6-3.5-82.9,0.8c-34.4,5.4-65.7,18.9-98.5,29.6C100,269.6,11.6,264.8-53.9,204.9
									c-35.5-32.4-58.2-75.7-75.5-119.8c-4.8-12.2-23.3-4.2-18.6,7.9c24.2,61.9,60.4,120.7,118.8,155.7
									c44.7,26.7,96.5,34.3,147.8,28.7c67.9-7.4,127.6-44.1,196.3-47.6c110.5-5.7,210.7,77.1,252.3,175.8
									C572.4,417.6,591,409.7,585.9,397.7L585.9,397.7z"/>
							</g>
						</g>
					</g>
					<g>
						<g>
							
								<linearGradient id="SVGID_19_" gradientUnits="userSpaceOnUse" x1="1877.4423" y1="707.3961" x2="2612.8765" y2="707.3961" gradientTransform="matrix(1 0 0 -1 0 1997.8898)">
								<stop  offset="0" style="stop-color:#3023AE"/>
								<stop  offset="1" style="stop-color:#FF0099"/>
							</linearGradient>
							<path class="st18" d="M2612,1442.9c-20.6-49-56.7-94.1-97.2-127.8c-35.9-30-79.2-50.1-125.4-57.6
								c-27.4-4.4-55.6-3.5-82.9,0.8c-34.4,5.4-65.7,18.9-98.5,29.6c-81.8,26.9-170.2,22.1-235.7-37.8
								c-35.5-32.4-58.2-75.7-75.5-119.8c-4.8-12.2-23.3-4.2-18.6,7.9c24.2,61.9,60.4,120.7,118.8,155.7
								c44.7,26.7,96.5,34.3,147.8,28.7c67.9-7.4,127.6-44.1,196.3-47.6c110.5-5.7,210.7,77.1,252.3,175.8
								C2598.5,1462.8,2617.1,1454.9,2612,1442.9L2612,1442.9z"/>
						</g>
						<g>
							
								<linearGradient id="SVGID_20_" gradientUnits="userSpaceOnUse" x1="1162.9419" y1="1018.0961" x2="1898.4452" y2="1018.0961" gradientTransform="matrix(1 0 0 -1 0 1997.8898)">
								<stop  offset="0" style="stop-color:#3023AE"/>
								<stop  offset="1" style="stop-color:#FF0099"/>
							</linearGradient>
							<path class="st19" d="M1897.6,1132.2c-20.6-49-56.7-94.1-97.3-127.8c-35.9-30-79.2-50.1-125.4-57.6
								c-27.4-4.4-55.6-3.5-82.9,0.8c-34.4,5.4-65.7,18.9-98.5,29.6c-81.8,26.9-170.2,22.1-235.7-37.8
								c-35.5-32.4-58.2-75.7-75.5-119.8c-4.8-12.2-23.3-4.2-18.6,7.9c24.2,61.9,60.4,120.7,118.8,155.7
								c44.7,26.7,96.5,34.3,147.8,28.7c67.9-7.4,127.6-44.1,196.3-47.6c110.5-5.7,210.7,77.1,252.3,175.8
								C1884,1152.1,1902.6,1144.2,1897.6,1132.2L1897.6,1132.2z"/>
						</g>
						<g>
							<g>
								
									<linearGradient id="SVGID_21_" gradientUnits="userSpaceOnUse" x1="449.6419" y1="1325.8961" x2="1185.1764" y2="1325.8961" gradientTransform="matrix(1 0 0 -1 0 1997.8898)">
									<stop  offset="0" style="stop-color:#3023AE"/>
									<stop  offset="1" style="stop-color:#FF0099"/>
								</linearGradient>
								<path class="st20" d="M1184.3,824.4c-20.6-49-56.7-94.1-97.3-127.8c-35.9-30-79.2-50.1-125.4-57.6
									c-27.4-4.4-55.6-3.5-82.9,0.8c-34.4,5.4-65.7,18.9-98.5,29.6c-81.8,26.9-170.2,22.1-235.7-37.8
									c-35.5-32.4-58.2-75.7-75.5-119.8c-4.8-12.2-23.3-4.2-18.6,7.9c24.2,61.9,60.4,120.7,118.8,155.7
									c44.7,26.7,96.5,34.3,147.8,28.7c67.9-7.4,127.6-44.1,196.3-47.6c110.5-5.7,210.7,77.1,252.3,175.8
									C1170.8,844.3,1189.4,836.4,1184.3,824.4L1184.3,824.4z"/>
							</g>
							<g>
								
									<linearGradient id="SVGID_22_" gradientUnits="userSpaceOnUse" x1="-264.758" y1="1636.5183" x2="470.7489" y2="1636.5183" gradientTransform="matrix(1 0 0 -1 0 1997.8898)">
									<stop  offset="0" style="stop-color:#3023AE"/>
									<stop  offset="1" style="stop-color:#FF0099"/>
								</linearGradient>
								<path class="st21" d="M469.9,513.8c-20.6-49-56.7-94.1-97.3-127.8c-35.9-30-79.2-50.1-125.4-57.6
									c-27.4-4.4-55.6-3.5-82.9,0.8c-34.4,5.4-65.7,18.9-98.5,29.6C-16,385.7-104.4,380.9-169.9,321
									c-35.5-32.4-58.2-75.7-75.5-119.8c-4.8-12.2-23.3-4.2-18.6,7.9c24.2,61.9,60.4,120.7,118.8,155.7
									c44.7,26.7,96.5,34.3,147.8,28.7c67.9-7.4,127.6-44.1,196.3-47.6c110.5-5.7,210.7,77.1,252.3,175.8
									C456.4,533.6,474.9,525.8,469.9,513.8L469.9,513.8z"/>
							</g>
						</g>
					</g>
					<g>
						<g>
							
								<linearGradient id="SVGID_23_" gradientUnits="userSpaceOnUse" x1="1761.4423" y1="591.3303" x2="2496.8455" y2="591.3303" gradientTransform="matrix(1 0 0 -1 0 1997.8898)">
								<stop  offset="0" style="stop-color:#3023AE"/>
								<stop  offset="1" style="stop-color:#FF0099"/>
							</linearGradient>
							<path class="st22" d="M2496,1559c-20.6-49-56.7-94.1-97.2-127.8c-35.9-30-79.2-50.1-125.4-57.6c-27.4-4.4-55.6-3.5-82.9,0.8
								c-34.4,5.4-65.7,18.9-98.5,29.6c-81.8,26.9-170.2,22.1-235.7-37.8c-35.5-32.4-58.2-75.7-75.5-119.8
								c-4.8-12.2-23.3-4.2-18.6,7.9c24.2,61.9,60.4,120.7,118.8,155.7c44.7,26.7,96.5,34.3,147.8,28.7
								c67.9-7.4,127.6-44.1,196.3-47.6c110.5-5.7,210.7,77.1,252.3,175.8C2482.4,1578.8,2501,1570.9,2496,1559L2496,1559z"/>
						</g>
						<g>
							
								<linearGradient id="SVGID_24_" gradientUnits="userSpaceOnUse" x1="1046.8419" y1="901.9961" x2="1782.3763" y2="901.9961" gradientTransform="matrix(1 0 0 -1 0 1997.8898)">
								<stop  offset="0" style="stop-color:#3023AE"/>
								<stop  offset="1" style="stop-color:#FF0099"/>
							</linearGradient>
							<path class="st23" d="M1781.5,1248.3c-20.6-49-56.7-94.1-97.3-127.8c-35.9-30-79.2-50.1-125.4-57.6
								c-27.4-4.4-55.6-3.5-82.9,0.8c-34.4,5.4-65.7,18.9-98.5,29.6c-81.8,26.9-170.2,22.1-235.7-37.8
								c-35.5-32.4-58.2-75.7-75.5-119.8c-4.8-12.2-23.3-4.2-18.6,7.9c24.2,61.9,60.4,120.7,118.8,155.7
								c44.7,26.7,96.5,34.3,147.8,28.7c67.9-7.4,127.6-44.1,196.3-47.6c110.5-5.7,210.7,77.1,252.3,175.8
								C1768,1268.2,1786.6,1260.3,1781.5,1248.3L1781.5,1248.3z"/>
						</g>
						<g>
							<g>
								
									<linearGradient id="SVGID_25_" gradientUnits="userSpaceOnUse" x1="333.642" y1="1209.796" x2="1069.1453" y2="1209.796" gradientTransform="matrix(1 0 0 -1 0 1997.8898)">
									<stop  offset="0" style="stop-color:#3023AE"/>
									<stop  offset="1" style="stop-color:#FF0099"/>
								</linearGradient>
								<path class="st24" d="M1068.3,940.5c-20.6-49-56.7-94.1-97.3-127.8c-35.9-30-79.2-50.1-125.4-57.6
									c-27.4-4.4-55.6-3.5-82.9,0.8c-34.4,5.4-65.7,18.9-98.5,29.6c-81.8,26.9-170.2,22.1-235.7-37.8
									C393,715.3,370.3,672,353,627.9c-4.8-12.2-23.3-4.2-18.6,7.9c24.2,61.9,60.4,120.7,118.8,155.7
									c44.7,26.7,96.5,34.3,147.8,28.7c67.9-7.4,127.6-44.1,196.3-47.6c110.5-5.7,210.7,77.1,252.3,175.8
									C1054.7,960.4,1073.3,952.5,1068.3,940.5L1068.3,940.5z"/>
							</g>
							<g>
								
									<linearGradient id="SVGID_26_" gradientUnits="userSpaceOnUse" x1="-380.858" y1="1520.4961" x2="354.6764" y2="1520.4961" gradientTransform="matrix(1 0 0 -1 0 1997.8898)">
									<stop  offset="0" style="stop-color:#3023AE"/>
									<stop  offset="1" style="stop-color:#FF0099"/>
								</linearGradient>
								<path class="st25" d="M353.8,629.8c-20.6-49-56.7-94.1-97.3-127.8c-35.9-30-79.2-50.1-125.4-57.6
									c-27.4-4.4-55.6-3.5-82.9,0.8c-34.4,5.4-65.7,18.9-98.5,29.6c-81.8,26.9-170.2,22.1-235.7-37.8
									c-35.5-32.4-58.2-75.7-75.5-119.8c-4.8-12.2-23.3-4.2-18.6,7.9c24.2,61.9,60.4,120.7,118.8,155.7
									c44.7,26.7,96.5,34.3,147.8,28.7c67.9-7.4,127.6-44.1,196.3-47.6c110.5-5.7,210.7,77.1,252.3,175.8
									C340.3,649.7,358.9,641.8,353.8,629.8L353.8,629.8z"/>
							</g>
						</g>
					</g>
					<g>
						<g>
							
								<linearGradient id="SVGID_27_" gradientUnits="userSpaceOnUse" x1="1645.3422" y1="475.2961" x2="2380.7764" y2="475.2961" gradientTransform="matrix(1 0 0 -1 0 1997.8898)">
								<stop  offset="0" style="stop-color:#3023AE"/>
								<stop  offset="1" style="stop-color:#FF0099"/>
							</linearGradient>
							<path class="st26" d="M2379.9,1675c-20.6-49-56.7-94.1-97.2-127.8c-35.9-30-79.2-50.1-125.4-57.6
								c-27.4-4.4-55.6-3.5-82.9,0.8c-34.4,5.4-65.7,18.9-98.5,29.6c-81.8,26.9-170.2,22.1-235.7-37.8
								c-35.5-32.4-58.2-75.7-75.5-119.8c-4.8-12.2-23.3-4.2-18.6,7.9c24.2,61.9,60.4,120.7,118.8,155.7
								c44.7,26.7,96.5,34.3,147.8,28.7c67.9-7.4,127.6-44.1,196.3-47.6c110.5-5.7,210.7,77.1,252.3,175.8
								C2366.4,1694.9,2385,1687,2379.9,1675L2379.9,1675z"/>
						</g>
						<g>
							
								<linearGradient id="SVGID_28_" gradientUnits="userSpaceOnUse" x1="930.7419" y1="785.9302" x2="1666.2764" y2="785.9302" gradientTransform="matrix(1 0 0 -1 0 1997.8898)">
								<stop  offset="0" style="stop-color:#3023AE"/>
								<stop  offset="1" style="stop-color:#FF0099"/>
							</linearGradient>
							<path class="st27" d="M1665.4,1364.4c-20.6-49-56.7-94.1-97.3-127.8c-35.9-30-79.2-50.1-125.4-57.6
								c-27.4-4.4-55.6-3.5-82.9,0.8c-34.4,5.4-65.7,18.9-98.5,29.6c-81.8,26.9-170.2,22.1-235.7-37.8
								c-35.5-32.4-58.2-75.7-75.5-119.8c-4.8-12.2-23.3-4.2-18.6,7.9c24.2,61.9,60.4,120.7,118.8,155.7
								c44.7,26.7,96.5,34.3,147.8,28.7c67.9-7.4,127.6-44.1,196.3-47.6c110.5-5.7,210.7,77.1,252.3,175.8
								C1651.9,1384.2,1670.5,1376.3,1665.4,1364.4L1665.4,1364.4z"/>
						</g>
						<g>
							<g>
								
									<linearGradient id="SVGID_29_" gradientUnits="userSpaceOnUse" x1="217.5419" y1="1093.7302" x2="953.0764" y2="1093.7302" gradientTransform="matrix(1 0 0 -1 0 1997.8898)">
									<stop  offset="0" style="stop-color:#3023AE"/>
									<stop  offset="1" style="stop-color:#FF0099"/>
								</linearGradient>
								<path class="st28" d="M952.2,1056.6c-20.6-49-56.7-94.1-97.3-127.8c-35.9-30-79.2-50.1-125.4-57.6
									c-27.4-4.4-55.6-3.5-82.9,0.8c-34.4,5.4-65.7,18.9-98.5,29.6c-81.8,26.9-170.2,22.1-235.7-37.8
									c-35.5-32.4-58.2-75.7-75.5-119.8c-4.8-12.2-23.3-4.2-18.6,7.9c24.2,61.9,60.4,120.7,118.8,155.7
									c44.7,26.7,96.5,34.3,147.8,28.7c67.9-7.4,127.6-44.1,196.3-47.6c110.5-5.7,210.7,77.1,252.3,175.8
									C938.7,1076.4,957.3,1068.5,952.2,1056.6L952.2,1056.6z"/>
							</g>
							<g>
								
									<linearGradient id="SVGID_30_" gradientUnits="userSpaceOnUse" x1="-496.858" y1="1404.3961" x2="238.6452" y2="1404.3961" gradientTransform="matrix(1 0 0 -1 0 1997.8898)">
									<stop  offset="0" style="stop-color:#3023AE"/>
									<stop  offset="1" style="stop-color:#FF0099"/>
								</linearGradient>
								<path class="st29" d="M237.8,745.9c-20.6-49-56.7-94.1-97.3-127.8c-35.9-30-79.2-50.1-125.4-57.6
									c-27.4-4.4-55.6-3.5-82.9,0.8c-34.4,5.4-65.7,18.9-98.5,29.6c-81.8,26.9-170.2,22.1-235.7-37.8
									c-35.5-32.4-58.2-75.7-75.5-119.8c-4.8-12.2-23.3-4.2-18.6,7.9c24.2,61.9,60.4,120.7,118.8,155.7
									c44.7,26.7,96.5,34.3,147.8,28.7c67.9-7.4,127.6-44.1,196.3-47.6c110.5-5.7,210.7,77.1,252.3,175.8
									C224.2,765.8,242.8,757.9,237.8,745.9L237.8,745.9z"/>
							</g>
						</g>
					</g>
					<g>
						<g>
							
								<linearGradient id="SVGID_31_" gradientUnits="userSpaceOnUse" x1="1529.2421" y1="359.1962" x2="2264.6765" y2="359.1962" gradientTransform="matrix(1 0 0 -1 0 1997.8898)">
								<stop  offset="0" style="stop-color:#3023AE"/>
								<stop  offset="1" style="stop-color:#FF0099"/>
							</linearGradient>
							<path class="st30" d="M2263.8,1791.1c-20.6-49-56.7-94.1-97.2-127.8c-35.9-30-79.2-50.1-125.4-57.6
								c-27.4-4.4-55.6-3.5-82.9,0.8c-34.4,5.4-65.7,18.9-98.5,29.6c-81.8,26.9-170.2,22.1-235.7-37.8
								c-35.5-32.4-58.2-75.7-75.5-119.8c-4.8-12.2-23.3-4.2-18.6,7.9c24.2,61.9,60.4,120.7,118.8,155.7
								c44.7,26.7,96.5,34.3,147.8,28.7c67.9-7.4,127.6-44.1,196.3-47.6c110.5-5.7,210.7,77.1,252.3,175.8
								C2250.3,1811,2268.9,1803.1,2263.8,1791.1L2263.8,1791.1z"/>
						</g>
						<g>
							
								<linearGradient id="SVGID_32_" gradientUnits="userSpaceOnUse" x1="814.7419" y1="669.8961" x2="1550.2452" y2="669.8961" gradientTransform="matrix(1 0 0 -1 0 1997.8898)">
								<stop  offset="0" style="stop-color:#3023AE"/>
								<stop  offset="1" style="stop-color:#FF0099"/>
							</linearGradient>
							<path class="st31" d="M1549.4,1480.4c-20.6-49-56.7-94.1-97.3-127.8c-35.9-30-79.2-50.1-125.4-57.6
								c-27.4-4.4-55.6-3.5-82.9,0.8c-34.4,5.4-65.7,18.9-98.5,29.6c-81.8,26.9-170.2,22.1-235.7-37.8
								c-35.5-32.4-58.2-75.7-75.5-119.8c-4.8-12.2-23.3-4.2-18.6,7.9c24.2,61.9,60.4,120.7,118.8,155.7
								c44.7,26.7,96.5,34.3,147.8,28.7c67.9-7.4,127.6-44.1,196.3-47.6c110.5-5.7,210.7,77.1,252.3,175.8
								C1535.8,1500.3,1554.4,1492.4,1549.4,1480.4L1549.4,1480.4z"/>
						</g>
						<g>
							<g>
								
									<linearGradient id="SVGID_33_" gradientUnits="userSpaceOnUse" x1="101.542" y1="977.6961" x2="837.0453" y2="977.6961" gradientTransform="matrix(1 0 0 -1 0 1997.8898)">
									<stop  offset="0" style="stop-color:#3023AE"/>
									<stop  offset="1" style="stop-color:#FF0099"/>
								</linearGradient>
								<path class="st32" d="M836.2,1172.6c-20.6-49-56.7-94.1-97.3-127.8c-35.9-30-79.2-50.1-125.4-57.6
									c-27.4-4.4-55.6-3.5-82.9,0.8c-34.4,5.4-65.7,18.9-98.5,29.6c-81.8,26.9-170.2,22.1-235.7-37.8
									c-35.5-32.4-58.2-75.7-75.5-119.8c-4.8-12.2-23.3-4.2-18.6,7.9c24.2,61.9,60.4,120.7,118.8,155.7
									c44.7,26.7,96.5,34.3,147.8,28.7c67.9-7.4,127.6-44.1,196.3-47.6c110.5-5.7,210.7,77.1,252.3,175.8
									C822.6,1192.5,841.2,1184.6,836.2,1172.6L836.2,1172.6z"/>
							</g>
							<g>
								
									<linearGradient id="SVGID_34_" gradientUnits="userSpaceOnUse" x1="-612.9581" y1="1288.3961" x2="122.5764" y2="1288.3961" gradientTransform="matrix(1 0 0 -1 0 1997.8898)">
									<stop  offset="0" style="stop-color:#3023AE"/>
									<stop  offset="1" style="stop-color:#FF0099"/>
								</linearGradient>
								<path class="st33" d="M121.7,861.9c-20.6-49-56.7-94.1-97.3-127.8c-35.9-30-79.2-50.1-125.4-57.6
									c-27.4-4.4-55.6-3.5-82.9,0.8c-34.4,5.4-65.7,18.9-98.5,29.6c-81.8,26.9-170.2,22.1-235.7-37.8
									c-35.5-32.4-58.2-75.7-75.5-119.8c-4.8-12.2-23.3-4.2-18.6,7.9c24.2,61.9,60.4,120.7,118.8,155.7
									c44.7,26.7,96.5,34.3,147.8,28.7c67.9-7.4,127.6-44.1,196.3-47.6c110.5-5.7,210.7,77.1,252.3,175.8
									C108.2,881.8,126.8,873.9,121.7,861.9L121.7,861.9z"/>
							</g>
						</g>
					</g>
					<g>
						<g>
							
								<linearGradient id="SVGID_35_" gradientUnits="userSpaceOnUse" x1="1413.2421" y1="243.1962" x2="2148.6455" y2="243.1962" gradientTransform="matrix(1 0 0 -1 0 1997.8898)">
								<stop  offset="0" style="stop-color:#3023AE"/>
								<stop  offset="1" style="stop-color:#FF0099"/>
							</linearGradient>
							<path class="st34" d="M2147.8,1907.1c-20.6-49-56.7-94.1-97.2-127.8c-35.9-30-79.2-50.1-125.4-57.6
								c-27.4-4.4-55.5-3.5-82.9,0.8c-34.4,5.4-65.7,18.9-98.5,29.6c-81.8,26.9-170.2,22.1-235.7-37.8
								c-35.5-32.4-58.2-75.7-75.5-119.8c-4.8-12.2-23.3-4.2-18.6,7.9c24.2,61.9,60.4,120.7,118.8,155.7
								c44.7,26.7,96.5,34.3,147.8,28.7c67.9-7.4,127.6-44.1,196.3-47.6c110.5-5.7,210.7,77.1,252.3,175.8
								C2134.2,1927,2152.8,1919.1,2147.8,1907.1L2147.8,1907.1z"/>
						</g>
						<g>
							
								<linearGradient id="SVGID_36_" gradientUnits="userSpaceOnUse" x1="698.6419" y1="553.7961" x2="1434.1764" y2="553.7961" gradientTransform="matrix(1 0 0 -1 0 1997.8898)">
								<stop  offset="0" style="stop-color:#3023AE"/>
								<stop  offset="1" style="stop-color:#FF0099"/>
							</linearGradient>
							<path class="st35" d="M1433.3,1596.5c-20.6-49-56.7-94.1-97.3-127.8c-35.9-30-79.2-50.1-125.4-57.6
								c-27.4-4.4-55.6-3.5-82.9,0.8c-34.4,5.4-65.7,18.9-98.5,29.6c-81.8,26.9-170.2,22.1-235.7-37.8
								c-35.5-32.4-58.2-75.7-75.5-119.8c-4.8-12.2-23.3-4.2-18.6,7.9c24.2,61.9,60.4,120.7,118.8,155.7
								c44.7,26.7,96.5,34.3,147.8,28.7c67.9-7.4,127.6-44.1,196.3-47.6c110.5-5.7,210.7,77.1,252.3,175.8
								C1419.8,1616.4,1438.4,1608.5,1433.3,1596.5L1433.3,1596.5z"/>
						</g>
						<g>
							<g>
								
									<linearGradient id="SVGID_37_" gradientUnits="userSpaceOnUse" x1="-14.558" y1="861.5961" x2="720.9764" y2="861.5961" gradientTransform="matrix(1 0 0 -1 0 1997.8898)">
									<stop  offset="0" style="stop-color:#3023AE"/>
									<stop  offset="1" style="stop-color:#FF0099"/>
								</linearGradient>
								<path class="st36" d="M720.1,1288.7c-20.6-49-56.7-94.1-97.3-127.8c-35.9-30-79.2-50.1-125.4-57.6
									c-27.4-4.4-55.6-3.5-82.9,0.8c-34.4,5.4-65.7,18.9-98.5,29.6c-81.8,26.9-170.2,22.1-235.7-37.8
									c-35.5-32.4-58.2-75.7-75.5-119.8c-4.8-12.2-23.3-4.2-18.6,7.9c24.2,61.9,60.4,120.7,118.8,155.7
									c44.7,26.7,96.5,34.3,147.8,28.7c67.9-7.4,127.6-44.1,196.3-47.6c110.5-5.7,210.7,77.1,252.3,175.8
									C706.6,1308.6,725.2,1300.7,720.1,1288.7L720.1,1288.7z"/>
							</g>
							<g>
								<linearGradient id="SVGID_38_" gradientUnits="userSpaceOnUse" x1="-729.058" y1="825.5937" x2="6.4764" y2="825.5937">
									<stop  offset="0" style="stop-color:#3023AE"/>
									<stop  offset="1" style="stop-color:#FF0099"/>
								</linearGradient>
								<path class="st37" d="M5.6,978c-20.6-49-56.7-94.1-97.3-127.8c-35.9-30-79.2-50.1-125.4-57.6c-27.4-4.4-55.6-3.5-82.9,0.8
									c-34.4,5.4-65.7,18.9-98.5,29.6c-81.8,26.9-170.2,22.1-235.7-37.8c-35.5-32.4-58.2-75.7-75.5-119.8
									c-4.8-12.2-23.3-4.2-18.6,7.9c24.2,61.9,60.4,120.7,118.8,155.7c44.7,26.7,96.5,34.3,147.8,28.7
									c67.9-7.4,127.6-44.1,196.3-47.6c110.5-5.7,210.7,77.1,252.3,175.8C-7.9,997.9,10.7,990,5.6,978L5.6,978z"/>
							</g>
						</g>
					</g>
					<g>
						<g>
							
								<linearGradient id="SVGID_39_" gradientUnits="userSpaceOnUse" x1="1297.0419" y1="127.0962" x2="2032.5764" y2="127.0962" gradientTransform="matrix(1 0 0 -1 0 1997.8898)">
								<stop  offset="0" style="stop-color:#3023AE"/>
								<stop  offset="1" style="stop-color:#FF0099"/>
							</linearGradient>
							<path class="st38" d="M2031.7,2023.2c-20.6-49-56.7-94.1-97.3-127.8c-35.9-30-79.2-50.1-125.4-57.6
								c-27.4-4.4-55.6-3.5-82.9,0.8c-34.4,5.4-65.7,18.9-98.5,29.6c-81.8,26.9-170.2,22.1-235.7-37.8
								c-35.5-32.4-58.2-75.7-75.5-119.8c-4.8-12.2-23.3-4.2-18.6,7.9c24.2,61.9,60.4,120.7,118.8,155.7
								c44.7,26.7,96.5,34.3,147.8,28.7c67.9-7.4,127.6-44.1,196.3-47.6c110.5-5.7,210.7,77.1,252.3,175.8
								C2018.2,2043.1,2036.8,2035.2,2031.7,2023.2L2031.7,2023.2z"/>
						</g>
						<g>
							
								<linearGradient id="SVGID_40_" gradientUnits="userSpaceOnUse" x1="582.6419" y1="437.7961" x2="1318.1453" y2="437.7961" gradientTransform="matrix(1 0 0 -1 0 1997.8898)">
								<stop  offset="0" style="stop-color:#3023AE"/>
								<stop  offset="1" style="stop-color:#FF0099"/>
							</linearGradient>
							<path class="st39" d="M1317.3,1712.5c-20.6-49-56.7-94.1-97.3-127.8c-35.9-30-79.2-50.1-125.4-57.6
								c-27.4-4.4-55.6-3.5-82.9,0.8c-34.4,5.4-65.7,18.9-98.5,29.6c-81.8,26.9-170.2,22.1-235.7-37.8
								c-35.5-32.4-58.2-75.7-75.5-119.8c-4.8-12.2-23.3-4.2-18.6,7.9c24.2,61.9,60.4,120.7,118.8,155.7
								c44.7,26.7,96.5,34.3,147.8,28.7c67.9-7.4,127.6-44.1,196.3-47.6c110.5-5.7,210.7,77.1,252.3,175.8
								C1303.7,1732.4,1322.3,1724.5,1317.3,1712.5L1317.3,1712.5z"/>
						</g>
						<g>
							<g>
								
									<linearGradient id="SVGID_41_" gradientUnits="userSpaceOnUse" x1="-130.658" y1="745.5962" x2="604.8764" y2="745.5962" gradientTransform="matrix(1 0 0 -1 0 1997.8898)">
									<stop  offset="0" style="stop-color:#3023AE"/>
									<stop  offset="1" style="stop-color:#FF0099"/>
								</linearGradient>
								<path class="st40" d="M604,1404.7c-20.6-49-56.7-94.1-97.3-127.8c-35.9-30-79.2-50.1-125.4-57.6
									c-27.4-4.4-55.6-3.5-82.9,0.8c-34.4,5.4-65.7,18.9-98.5,29.6c-81.8,26.9-170.2,22.1-235.7-37.8
									c-35.5-32.4-58.2-75.7-75.5-119.8c-4.8-12.2-23.3-4.2-18.6,7.9c24.2,61.9,60.4,120.7,118.8,155.7
									c44.7,26.7,96.5,34.3,147.8,28.7c67.9-7.4,127.6-44.1,196.3-47.6c110.5-5.7,210.7,77.1,252.3,175.8
									C590.5,1424.6,609.1,1416.7,604,1404.7L604,1404.7z"/>
							</g>
							<g>
								<path class="st1" d="M-110.4,1094.1c-20.6-49-56.7-94.1-97.3-127.8c-35.9-30-79.2-50.1-125.4-57.6
									c-27.4-4.4-55.6-3.5-82.9,0.8c-34.4,5.4-65.7,18.9-98.5,29.6c-81.8,26.9-170.2,22.1-235.7-37.8
									c-35.5-32.4-58.2-75.7-75.5-119.8c-4.8-12.2-23.3-4.2-18.6,7.9C-820,851.3-783.8,910-725.4,945
									c44.7,26.7,96.5,34.3,147.8,28.7c67.9-7.4,127.6-44.1,196.3-47.6c110.5-5.7,210.7,77.1,252.3,175.8
									C-124,1114-105.4,1106.1-110.4,1094.1L-110.4,1094.1z"/>
							</g>
						</g>
					</g>
					<g>
						<g>
							
								<linearGradient id="SVGID_42_" gradientUnits="userSpaceOnUse" x1="1181.0419" y1="11.0302" x2="1916.5452" y2="11.0302" gradientTransform="matrix(1 0 0 -1 0 1997.8898)">
								<stop  offset="0" style="stop-color:#3023AE"/>
								<stop  offset="1" style="stop-color:#FF0099"/>
							</linearGradient>
							<path class="st41" d="M1915.7,2139.3c-20.6-49-56.7-94.1-97.3-127.8c-35.9-30-79.2-50.1-125.4-57.6
								c-27.4-4.4-55.6-3.5-82.9,0.8c-34.4,5.4-65.7,18.9-98.5,29.6c-81.8,26.9-170.2,22.1-235.7-37.8
								c-35.5-32.4-58.2-75.7-75.5-119.8c-4.8-12.2-23.3-4.2-18.6,7.9c24.2,61.9,60.4,120.7,118.8,155.7
								c44.7,26.7,96.5,34.3,147.8,28.7c67.9-7.4,127.6-44.1,196.3-47.6c110.5-5.7,210.7,77.1,252.3,175.8
								C1902.1,2159.1,1920.7,2151.2,1915.7,2139.3L1915.7,2139.3z"/>
						</g>
						<g>
							
								<linearGradient id="SVGID_43_" gradientUnits="userSpaceOnUse" x1="466.5418" y1="321.6962" x2="1202.0764" y2="321.6962" gradientTransform="matrix(1 0 0 -1 0 1997.8898)">
								<stop  offset="0" style="stop-color:#3023AE"/>
								<stop  offset="1" style="stop-color:#FF0099"/>
							</linearGradient>
							<path class="st42" d="M1201.2,1828.6c-20.6-49-56.7-94.1-97.3-127.8c-35.9-30-79.2-50.1-125.4-57.6
								c-27.4-4.4-55.6-3.5-82.9,0.8c-34.4,5.4-65.7,18.9-98.5,29.6c-81.8,26.9-170.2,22.1-235.7-37.8
								c-35.5-32.4-58.2-75.7-75.5-119.8c-4.8-12.2-23.3-4.2-18.6,7.9c24.2,61.9,60.4,120.7,118.8,155.7
								c44.7,26.7,96.5,34.3,147.8,28.7c67.9-7.4,127.6-44.1,196.3-47.6c110.5-5.7,210.7,77.1,252.3,175.8
								C1187.7,1848.5,1206.3,1840.6,1201.2,1828.6L1201.2,1828.6z"/>
						</g>
						<g>
							<g>
								
									<linearGradient id="SVGID_44_" gradientUnits="userSpaceOnUse" x1="-246.658" y1="629.4961" x2="488.8452" y2="629.4961" gradientTransform="matrix(1 0 0 -1 0 1997.8898)">
									<stop  offset="0" style="stop-color:#3023AE"/>
									<stop  offset="1" style="stop-color:#FF0099"/>
								</linearGradient>
								<path class="st43" d="M488,1520.8c-20.6-49-56.7-94.1-97.3-127.8c-35.9-30-79.2-50.1-125.4-57.6
									c-27.4-4.4-55.6-3.5-82.9,0.8c-34.4,5.4-65.7,18.9-98.5,29.6c-81.8,26.9-170.2,22.1-235.7-37.8
									c-35.5-32.4-58.2-75.7-75.5-119.8c-4.8-12.2-23.3-4.2-18.6,7.9c24.2,61.9,60.4,120.7,118.8,155.7
									c44.7,26.7,96.5,34.3,147.8,28.7c67.9-7.4,127.6-44.1,196.3-47.6c110.5-5.7,210.7,77.1,252.3,175.8
									C474.4,1540.7,493,1532.8,488,1520.8L488,1520.8z"/>
							</g>
							<g>
								<path class="st1" d="M-226.5,1210.1c-20.6-49-56.7-94.1-97.3-127.8c-35.9-30-79.2-50.1-125.4-57.6
									c-27.4-4.4-55.6-3.5-82.9,0.8c-34.4,5.4-65.7,18.9-98.5,29.6c-81.8,26.9-170.2,22.1-235.7-37.8
									c-35.5-32.4-58.2-75.7-75.5-119.8c-4.8-12.2-23.3-4.2-18.6,7.9c24.2,61.9,60.4,120.7,118.8,155.7
									c44.7,26.7,96.5,34.3,147.8,28.7c67.9-7.4,127.6-44.1,196.3-47.6c110.5-5.7,210.7,77.1,252.3,175.8
									C-240,1230-221.4,1222.1-226.5,1210.1L-226.5,1210.1z"/>
							</g>
						</g>
					</g>
					<g>
						<g>
							
								<linearGradient id="SVGID_45_" gradientUnits="userSpaceOnUse" x1="1064.9419" y1="-105.0039" x2="1800.4763" y2="-105.0039" gradientTransform="matrix(1 0 0 -1 0 1997.8898)">
								<stop  offset="0" style="stop-color:#3023AE"/>
								<stop  offset="1" style="stop-color:#FF0099"/>
							</linearGradient>
							<path class="st44" d="M1799.6,2255.3c-20.6-49-56.7-94.1-97.3-127.8c-35.9-30-79.2-50.1-125.4-57.6
								c-27.4-4.4-55.6-3.5-82.9,0.8c-34.4,5.4-65.7,18.9-98.5,29.6c-81.8,26.9-170.2,22.1-235.7-37.8
								c-35.5-32.4-58.2-75.7-75.5-119.8c-4.8-12.2-23.3-4.2-18.6,7.9c24.2,61.9,60.4,120.7,118.8,155.7
								c44.7,26.7,96.5,34.3,147.8,28.7c67.9-7.4,127.6-44.1,196.3-47.6c110.5-5.7,210.7,77.1,252.3,175.8
								C1786.1,2275.2,1804.7,2267.3,1799.6,2255.3L1799.6,2255.3z"/>
						</g>
						<g>
							
								<linearGradient id="SVGID_46_" gradientUnits="userSpaceOnUse" x1="350.4419" y1="205.6303" x2="1085.9763" y2="205.6303" gradientTransform="matrix(1 0 0 -1 0 1997.8898)">
								<stop  offset="0" style="stop-color:#3023AE"/>
								<stop  offset="1" style="stop-color:#FF0099"/>
							</linearGradient>
							<path class="st45" d="M1085.1,1944.7c-20.6-49-56.7-94.1-97.3-127.8c-35.9-30-79.2-50.1-125.4-57.6
								c-27.4-4.4-55.6-3.5-82.9,0.8c-34.4,5.4-65.7,18.9-98.5,29.6c-81.8,26.9-170.2,22.1-235.7-37.8
								c-35.5-32.4-58.2-75.7-75.5-119.8c-4.8-12.2-23.3-4.2-18.6,7.9c24.2,61.9,60.4,120.7,118.8,155.7
								c44.7,26.7,96.5,34.3,147.8,28.7c67.9-7.4,127.6-44.1,196.3-47.6c110.5-5.7,210.7,77.1,252.3,175.8
								C1071.6,1964.5,1090.2,1956.6,1085.1,1944.7L1085.1,1944.7z"/>
						</g>
						<g>
							<g>
								
									<linearGradient id="SVGID_47_" gradientUnits="userSpaceOnUse" x1="-362.7581" y1="513.4302" x2="372.7764" y2="513.4302" gradientTransform="matrix(1 0 0 -1 0 1997.8898)">
									<stop  offset="0" style="stop-color:#3023AE"/>
									<stop  offset="1" style="stop-color:#FF0099"/>
								</linearGradient>
								<path class="st46" d="M371.9,1636.9c-20.6-49-56.7-94.1-97.3-127.8c-35.9-30-79.2-50.1-125.4-57.6
									c-27.4-4.4-55.6-3.5-82.9,0.8c-34.4,5.4-65.7,18.9-98.5,29.6c-81.8,26.9-170.2,22.1-235.7-37.8
									c-35.5-32.4-58.2-75.7-75.5-119.8c-4.8-12.2-23.3-4.2-18.6,7.9c24.2,61.9,60.4,120.7,118.8,155.7
									c44.7,26.7,96.5,34.3,147.8,28.7c67.9-7.4,127.6-44.1,196.3-47.6c110.5-5.7,210.7,77.1,252.3,175.8
									C358.4,1656.7,377,1648.8,371.9,1636.9L371.9,1636.9z"/>
							</g>
							<g>
								<path class="st1" d="M-342.5,1326.2c-20.6-49-56.7-94.1-97.3-127.8c-35.9-30-79.2-50.1-125.4-57.6
									c-27.4-4.4-55.6-3.5-82.9,0.8c-34.4,5.4-65.7,18.9-98.5,29.6c-81.8,26.9-170.2,22.1-235.7-37.8
									c-35.5-32.4-58.2-75.7-75.5-119.8c-4.8-12.2-23.3-4.2-18.6,7.9c24.2,61.9,60.4,120.7,118.8,155.7
									c44.7,26.7,96.5,34.3,147.8,28.7c67.9-7.4,127.6-44.1,196.3-47.6c110.5-5.7,210.7,77.1,252.3,175.8
									C-356.1,1346.1-337.5,1338.2-342.5,1326.2L-342.5,1326.2z"/>
							</g>
						</g>
					</g>
					<g>
						<g>
							<path class="st1" d="M1683.5,2371.4c-20.6-49-56.7-94.1-97.3-127.8c-35.9-30-79.2-50.1-125.4-57.6
								c-27.4-4.4-55.6-3.5-82.9,0.8c-34.4,5.4-65.7,18.8-98.5,29.6c-81.8,26.9-170.2,22.1-235.7-37.8
								c-35.5-32.4-58.2-75.7-75.5-119.8c-4.8-12.2-23.3-4.2-18.6,7.9c24.2,61.9,60.4,120.7,118.8,155.7
								c44.7,26.7,96.5,34.3,147.8,28.7c67.9-7.4,127.6-44.1,196.3-47.6c110.5-5.7,210.7,77.1,252.3,175.8
								C1670,2391.3,1688.6,2383.4,1683.5,2371.4L1683.5,2371.4z"/>
						</g>
						<g>
							
								<linearGradient id="SVGID_48_" gradientUnits="userSpaceOnUse" x1="234.4419" y1="89.5962" x2="969.9453" y2="89.5962" gradientTransform="matrix(1 0 0 -1 0 1997.8898)">
								<stop  offset="0" style="stop-color:#3023AE"/>
								<stop  offset="1" style="stop-color:#FF0099"/>
							</linearGradient>
							<path class="st47" d="M969.1,2060.7c-20.6-49-56.7-94.1-97.3-127.8c-35.9-30-79.2-50.1-125.4-57.6
								c-27.4-4.4-55.6-3.5-82.9,0.8c-34.4,5.4-65.7,18.9-98.5,29.6c-81.8,26.9-170.2,22.1-235.7-37.8
								c-35.5-32.4-58.2-75.7-75.5-119.8c-4.8-12.2-23.3-4.2-18.6,7.9c24.2,61.9,60.4,120.7,118.8,155.7
								c44.7,26.7,96.5,34.3,147.8,28.7c67.9-7.4,127.6-44.1,196.3-47.6c110.5-5.7,210.7,77.1,252.3,175.8
								C955.5,2080.6,974.1,2072.7,969.1,2060.7L969.1,2060.7z"/>
						</g>
						<g>
							<g>
								
									<linearGradient id="SVGID_49_" gradientUnits="userSpaceOnUse" x1="-478.7581" y1="397.3961" x2="256.7452" y2="397.3961" gradientTransform="matrix(1 0 0 -1 0 1997.8898)">
									<stop  offset="0" style="stop-color:#3023AE"/>
									<stop  offset="1" style="stop-color:#FF0099"/>
								</linearGradient>
								<path class="st48" d="M255.9,1752.9c-20.6-49-56.7-94.1-97.3-127.8c-35.9-30-79.2-50.1-125.4-57.6
									c-27.4-4.4-55.6-3.5-82.9,0.8c-34.4,5.4-65.7,18.9-98.5,29.6c-81.8,26.9-170.2,22.1-235.7-37.8
									c-35.5-32.4-58.2-75.7-75.5-119.8c-4.8-12.2-23.3-4.2-18.6,7.9c24.2,61.9,60.4,120.7,118.8,155.7
									c44.7,26.7,96.5,34.3,147.8,28.7c67.9-7.4,127.6-44.1,196.3-47.6c110.5-5.7,210.7,77.1,252.3,175.8
									C242.3,1772.8,260.9,1764.9,255.9,1752.9L255.9,1752.9z"/>
							</g>
							<g>
								<path class="st1" d="M-458.6,1442.3c-20.6-49-56.7-94.1-97.3-127.8c-35.9-30-79.2-50.1-125.4-57.6
									c-27.4-4.4-55.6-3.5-82.9,0.8c-34.4,5.4-65.7,18.9-98.5,29.6c-81.8,26.9-170.2,22.1-235.7-37.8
									c-35.5-32.4-58.2-75.7-75.5-119.8c-4.8-12.2-23.3-4.2-18.6,7.9c24.2,61.9,60.4,120.7,118.8,155.7
									c44.7,26.7,96.5,34.3,147.8,28.7c67.9-7.4,127.6-44.1,196.3-47.6c110.5-5.7,210.7,77.1,252.3,175.8
									C-472.1,1462.1-453.5,1454.2-458.6,1442.3L-458.6,1442.3z"/>
							</g>
						</g>
					</g>
					<g>
						<g>
							<path class="st1" d="M1567.5,2487.4c-20.6-49-56.7-94.1-97.3-127.8c-35.9-30-79.2-50.1-125.4-57.6
								c-27.4-4.4-55.6-3.5-82.9,0.8c-34.4,5.3-65.7,18.8-98.5,29.6c-81.8,26.9-170.2,22.1-235.7-37.8
								c-35.5-32.4-58.2-75.7-75.5-119.8c-4.8-12.2-23.3-4.2-18.6,7.9c24.2,61.9,60.4,120.7,118.8,155.7
								c44.7,26.7,96.5,34.3,147.8,28.7c67.9-7.4,127.6-44.1,196.3-47.6c110.5-5.7,210.7,77.1,252.3,175.8
								C1553.9,2507.3,1572.5,2499.4,1567.5,2487.4L1567.5,2487.4z"/>
						</g>
						<g>
							
								<linearGradient id="SVGID_50_" gradientUnits="userSpaceOnUse" x1="118.3419" y1="-26.5039" x2="853.8764" y2="-26.5039" gradientTransform="matrix(1 0 0 -1 0 1997.8898)">
								<stop  offset="0" style="stop-color:#3023AE"/>
								<stop  offset="1" style="stop-color:#FF0099"/>
							</linearGradient>
							<path class="st49" d="M853,2176.8c-20.6-49-56.7-94.1-97.3-127.8c-35.9-30-79.2-50.1-125.4-57.6c-27.4-4.4-55.6-3.5-82.9,0.8
								c-34.4,5.4-65.7,18.9-98.5,29.6c-81.8,26.9-170.2,22.1-235.7-37.8c-35.5-32.4-58.2-75.7-75.5-119.8
								c-4.8-12.2-23.3-4.2-18.6,7.9c24.2,61.9,60.4,120.7,118.8,155.7c44.7,26.7,96.5,34.3,147.8,28.7
								c67.9-7.4,127.6-44.1,196.3-47.6c110.5-5.7,210.7,77.1,252.3,175.8C839.5,2196.7,858.1,2188.8,853,2176.8L853,2176.8z"/>
						</g>
						<g>
							<g>
								
									<linearGradient id="SVGID_51_" gradientUnits="userSpaceOnUse" x1="-594.858" y1="281.2961" x2="140.6764" y2="281.2961" gradientTransform="matrix(1 0 0 -1 0 1997.8898)">
									<stop  offset="0" style="stop-color:#3023AE"/>
									<stop  offset="1" style="stop-color:#FF0099"/>
								</linearGradient>
								<path class="st50" d="M139.8,1869c-20.6-49-56.7-94.1-97.3-127.8c-35.9-30-79.2-50.1-125.4-57.6
									c-27.4-4.4-55.6-3.5-82.9,0.8c-34.4,5.4-65.7,18.9-98.5,29.6c-81.8,26.9-170.2,22.1-235.7-37.8
									c-35.5-32.4-58.2-75.7-75.5-119.8c-4.8-12.2-23.3-4.2-18.6,7.9c24.2,61.9,60.4,120.7,118.8,155.7
									c44.7,26.7,96.5,34.3,147.8,28.7c67.9-7.4,127.6-44.1,196.3-47.6c110.5-5.7,210.7,77.1,252.3,175.8
									C126.3,1888.9,144.9,1881,139.8,1869L139.8,1869z"/>
							</g>
							<g>
								<path class="st1" d="M-574.7,1558.3c-20.6-49-56.7-94.1-97.3-127.8c-35.9-30-79.2-50.1-125.4-57.6
									c-27.4-4.4-55.6-3.5-82.9,0.8c-34.4,5.4-65.7,18.9-98.5,29.6c-81.8,26.9-170.2,22.1-235.7-37.8
									c-35.5-32.4-58.2-75.7-75.5-119.8c-4.8-12.2-23.3-4.2-18.6,7.9c24.2,61.9,60.4,120.7,118.8,155.7
									c44.7,26.7,96.5,34.3,147.8,28.7c67.9-7.4,127.6-44.1,196.3-47.6c110.5-5.7,210.7,77.1,252.3,175.8
									C-588.2,1578.2-569.6,1570.3-574.7,1558.3L-574.7,1558.3z"/>
							</g>
						</g>
					</g>
					<g>
						<g>
							<path class="st1" d="M1451.4,2603.5c-20.6-49-56.7-94.1-97.3-127.8c-35.9-30-79.2-50.1-125.4-57.6
								c-27.4-4.4-55.6-3.5-82.9,0.8c-34.4,5.3-65.7,18.8-98.5,29.6c-81.8,26.9-170.2,22.1-235.7-37.8
								c-35.5-32.4-58.2-75.7-75.5-119.8c-4.8-12.2-23.3-4.2-18.6,7.9c24.2,61.9,60.4,120.7,118.8,155.7
								c44.7,26.7,96.5,34.3,147.8,28.7c67.9-7.4,127.6-44.1,196.3-47.6c110.5-5.7,210.7,77.1,252.3,175.8
								C1437.9,2623.4,1456.5,2615.5,1451.4,2603.5L1451.4,2603.5z"/>
						</g>
						<g>
							<path class="st1" d="M737,2292.8c-20.6-49-56.7-94.1-97.3-127.8c-35.9-30-79.2-50.1-125.4-57.6c-27.4-4.4-55.6-3.5-82.9,0.8
								c-34.4,5.4-65.7,18.9-98.5,29.6c-81.8,26.9-170.2,22.1-235.7-37.8c-35.5-32.4-58.2-75.7-75.5-119.8
								c-4.8-12.2-23.3-4.2-18.6,7.9c24.2,61.9,60.4,120.7,118.8,155.7c44.7,26.7,96.5,34.3,147.8,28.7
								c67.9-7.4,127.6-44.1,196.3-47.6c110.5-5.7,210.7,77.1,252.3,175.8C723.4,2312.7,742,2304.8,737,2292.8L737,2292.8z"/>
						</g>
						<g>
							<g>
								<path class="st1" d="M23.7,1985c-20.6-49-56.7-94.1-97.3-127.8c-35.9-30-79.2-50.1-125.4-57.6c-27.4-4.4-55.6-3.5-82.9,0.8
									c-34.4,5.4-65.7,18.9-98.5,29.6c-81.8,26.9-170.2,22.1-235.7-37.8c-35.5-32.4-58.2-75.7-75.5-119.8
									c-4.8-12.2-23.3-4.2-18.6,7.9c24.2,61.9,60.4,120.7,118.8,155.7c44.7,26.7,96.5,34.3,147.8,28.7
									c67.9-7.4,127.6-44.1,196.3-47.6c110.5-5.7,210.7,77.1,252.3,175.8C10.2,2004.9,28.8,1997,23.7,1985L23.7,1985z"/>
							</g>
							<g>
								<path class="st1" d="M-690.7,1674.4c-20.6-49-56.7-94.1-97.3-127.8c-35.9-30-79.2-50.1-125.4-57.6
									c-27.4-4.4-55.6-3.5-82.9,0.8c-34.4,5.4-65.7,18.9-98.5,29.6c-81.8,26.9-170.2,22.1-235.7-37.8
									c-35.5-32.4-58.2-75.7-75.5-119.8c-4.8-12.2-23.3-4.2-18.6,7.9c24.2,61.9,60.4,120.7,118.8,155.7
									c44.7,26.7,96.5,34.3,147.8,28.7c67.9-7.4,127.6-44.1,196.3-47.6c110.5-5.7,210.7,77.1,252.3,175.8
									C-704.3,1694.3-685.7,1686.4-690.7,1674.4L-690.7,1674.4z"/>
							</g>
						</g>
					</g>
					<g>
						<g>
							<path class="st1" d="M1335.4,2719.6c-20.6-49-56.7-94.1-97.3-127.8c-35.9-30-79.2-50.1-125.4-57.6
								c-27.4-4.4-55.6-3.5-82.9,0.8c-34.4,5.3-65.7,18.8-98.5,29.6c-81.8,26.9-170.2,22.1-235.7-37.8
								c-35.5-32.4-58.2-75.7-75.5-119.8c-4.8-12.2-23.3-4.2-18.6,7.9c24.2,61.9,60.4,120.7,118.8,155.7
								c44.7,26.7,96.5,34.3,147.8,28.7c67.9-7.4,127.6-44.1,196.3-47.6c110.5-5.7,210.7,77.1,252.3,175.8
								C1321.8,2739.4,1340.4,2731.5,1335.4,2719.6L1335.4,2719.6z"/>
						</g>
						<g>
							<path class="st1" d="M620.9,2408.9c-20.6-49-56.7-94.1-97.3-127.8c-35.9-30-79.2-50.1-125.4-57.6
								c-27.4-4.4-55.6-3.5-82.9,0.8c-34.4,5.4-65.7,18.9-98.5,29.6c-81.8,26.9-170.2,22.1-235.7-37.8
								c-35.5-32.4-58.2-75.7-75.5-119.8c-4.8-12.2-23.3-4.2-18.6,7.9c24.2,61.9,60.4,120.7,118.8,155.7
								c44.7,26.7,96.5,34.3,147.8,28.7c67.9-7.4,127.6-44.1,196.3-47.6c110.5-5.7,210.7,77.1,252.3,175.8
								C607.4,2428.8,626,2420.9,620.9,2408.9L620.9,2408.9z"/>
						</g>
						<g>
							<g>
								<path class="st1" d="M-92.3,2101.1c-20.6-49-56.7-94.1-97.3-127.8c-35.9-30-79.2-50.1-125.4-57.6
									c-27.4-4.4-55.6-3.5-82.9,0.8c-34.4,5.4-65.7,18.9-98.5,29.6c-81.8,26.9-170.2,22.1-235.7-37.8
									c-35.5-32.4-58.2-75.7-75.5-119.8c-4.8-12.2-23.3-4.2-18.6,7.9c24.2,61.9,60.4,120.7,118.8,155.7
									c44.7,26.7,96.5,34.3,147.8,28.7c67.9-7.4,127.6-44.1,196.3-47.6c110.5-5.7,210.7,77.1,252.3,175.8
									C-105.9,2121-87.3,2113.1-92.3,2101.1L-92.3,2101.1z"/>
							</g>
							<g>
								<path class="st1" d="M-806.8,1790.4c-20.6-49-56.7-94.1-97.3-127.8c-35.9-30-79.2-50.1-125.4-57.6
									c-27.4-4.4-55.6-3.5-82.9,0.8c-34.4,5.4-65.7,18.9-98.5,29.6c-81.8,26.9-170.2,22.1-235.7-37.8
									c-35.5-32.4-58.2-75.7-75.5-119.8c-4.8-12.2-23.3-4.2-18.6,7.9c24.2,61.9,60.4,120.7,118.8,155.7
									c44.7,26.7,96.5,34.3,147.8,28.7c67.9-7.4,127.6-44.1,196.3-47.6c110.5-5.7,210.7,77.1,252.3,175.8
									C-820.3,1810.3-801.7,1802.4-806.8,1790.4L-806.8,1790.4z"/>
							</g>
						</g>
					</g>
					<g>
						<g>
							<path class="st1" d="M1219.3,2835.6c-20.6-49-56.7-94.1-97.3-127.8c-35.9-30-79.2-50.1-125.4-57.6
								c-27.4-4.4-55.6-3.5-82.9,0.8c-34.4,5.3-65.7,18.8-98.5,29.6c-81.8,26.9-170.2,22.1-235.7-37.8
								c-35.5-32.4-58.2-75.7-75.5-119.8c-4.8-12.2-23.3-4.2-18.6,7.9c24.2,61.9,60.4,120.7,118.8,155.7
								c44.7,26.7,96.5,34.3,147.8,28.7c67.9-7.4,127.6-44.1,196.3-47.6c110.5-5.7,210.7,77.1,252.3,175.8
								C1205.8,2855.5,1224.4,2847.6,1219.3,2835.6L1219.3,2835.6z"/>
						</g>
						<g>
							<path class="st1" d="M504.8,2525c-20.6-49-56.7-94.1-97.3-127.8c-35.9-30-79.2-50.1-125.4-57.6c-27.4-4.4-55.6-3.5-82.9,0.8
								c-34.4,5.4-65.7,18.9-98.5,29.6c-81.8,26.9-170.2,22.1-235.7-37.8c-35.5-32.4-58.2-75.7-75.5-119.8
								c-4.8-12.2-23.3-4.2-18.6,7.9c24.2,61.9,60.4,120.7,118.8,155.7c44.7,26.7,96.5,34.3,147.8,28.7
								c67.9-7.4,127.6-44.1,196.3-47.6c110.5-5.7,210.7,77.1,252.3,175.8C491.3,2544.8,509.9,2536.9,504.8,2525L504.8,2525z"/>
						</g>
						<g>
							<g>
								<path class="st1" d="M-208.4,2217.2c-20.6-49-56.7-94.1-97.3-127.8c-35.9-30-79.2-50.1-125.4-57.6
									c-27.4-4.4-55.6-3.5-82.9,0.8c-34.4,5.4-65.7,18.9-98.5,29.6c-81.8,26.9-170.2,22.1-235.7-37.8
									c-35.5-32.4-58.2-75.7-75.5-119.8c-4.8-12.2-23.3-4.2-18.6,7.9c24.2,61.9,60.4,120.7,118.8,155.7
									c44.7,26.7,96.5,34.3,147.8,28.7c67.9-7.4,127.6-44.1,196.3-47.6c110.5-5.7,210.7,77.1,252.3,175.8
									C-221.9,2237-203.3,2229.1-208.4,2217.2L-208.4,2217.2z"/>
							</g>
							<g>
								<path class="st1" d="M-922.8,1906.5c-20.6-49-56.7-94.1-97.3-127.8c-35.9-30-79.2-50.1-125.4-57.6
									c-27.4-4.4-55.6-3.5-82.9,0.8c-34.4,5.4-65.7,18.9-98.5,29.6c-81.8,26.9-170.2,22.1-235.7-37.8
									c-35.5-32.4-58.2-75.7-75.5-119.8c-4.8-12.2-23.3-4.2-18.6,7.9c24.2,61.9,60.4,120.7,118.8,155.7
									c44.7,26.7,96.5,34.3,147.8,28.7c67.9-7.4,127.6-44.1,196.3-47.6c110.5-5.7,210.7,77.1,252.3,175.8
									C-936.4,1926.4-917.8,1918.5-922.8,1906.5L-922.8,1906.5z"/>
							</g>
						</g>
					</g>
					<g>
						<g>
							<path class="st1" d="M1103.2,2951.7c-20.6-49-56.7-94.1-97.3-127.8c-35.9-30-79.2-50.1-125.4-57.6
								c-27.4-4.4-55.6-3.5-82.9,0.8c-34.4,5.3-65.7,18.8-98.5,29.6c-81.8,26.9-170.2,22.1-235.7-37.8
								c-35.5-32.4-58.2-75.7-75.5-119.8c-4.8-12.2-23.3-4.2-18.6,7.9c24.2,61.9,60.4,120.7,118.8,155.7
								c44.7,26.7,96.5,34.3,147.8,28.7c67.9-7.4,127.6-44.1,196.3-47.6c110.5-5.7,210.7,77.1,252.3,175.8
								C1089.7,2971.6,1108.3,2963.7,1103.2,2951.7L1103.2,2951.7z"/>
						</g>
						<g>
							<path class="st1" d="M388.8,2641c-20.6-49-56.7-94.1-97.3-127.8c-35.9-30-79.2-50.1-125.4-57.6c-27.4-4.4-55.6-3.5-82.9,0.8
								c-34.4,5.4-65.7,18.9-98.5,29.6c-81.8,26.9-170.2,22.1-235.7-37.8c-35.5-32.4-58.2-75.7-75.5-119.8
								c-4.8-12.2-23.3-4.2-18.6,7.9c24.2,61.9,60.4,120.7,118.8,155.7c44.7,26.7,96.5,34.3,147.8,28.7
								c67.9-7.4,127.6-44.1,196.3-47.6c110.5-5.7,210.7,77.1,252.3,175.8C375.2,2660.9,393.8,2653,388.8,2641L388.8,2641z"/>
						</g>
						<g>
							<g>
								<path class="st1" d="M-324.4,2333.2c-20.6-49-56.7-94.1-97.3-127.8c-35.9-30-79.2-50.1-125.4-57.6
									c-27.4-4.4-55.6-3.5-82.9,0.8c-34.4,5.4-65.7,18.9-98.5,29.6c-81.8,26.9-170.2,22.1-235.7-37.8
									c-35.5-32.4-58.2-75.7-75.5-119.8c-4.8-12.2-23.3-4.2-18.6,7.9c24.2,61.9,60.4,120.7,118.8,155.7
									c44.7,26.7,96.5,34.3,147.8,28.7c67.9-7.4,127.6-44.1,196.3-47.6c110.5-5.7,210.7,77.1,252.3,175.8
									C-338,2353.1-319.4,2345.2-324.4,2333.2L-324.4,2333.2z"/>
							</g>
							<g>
								<path class="st1" d="M-1038.9,2022.6c-20.6-49-56.7-94.1-97.3-127.8c-35.9-30-79.2-50.1-125.4-57.6
									c-27.4-4.4-55.6-3.5-82.9,0.8c-34.4,5.4-65.7,18.9-98.5,29.6c-81.8,26.9-170.2,22.1-235.7-37.8
									c-35.5-32.4-58.2-75.7-75.5-119.8c-4.8-12.2-23.3-4.2-18.6,7.9c24.2,61.9,60.4,120.7,118.8,155.7
									c44.7,26.7,96.5,34.3,147.8,28.7c67.9-7.4,127.6-44.1,196.3-47.6c110.5-5.7,210.7,77.1,252.3,175.8
									C-1052.4,2042.4-1033.8,2034.5-1038.9,2022.6L-1038.9,2022.6z"/>
							</g>
						</g>
					</g>
				</g>
			</g>
		</g>
	</g>
</g>
<g id="Layer_2_1_">
</g>
</svg>
